<?xml version="1.0" standalone="no"?>
<!DOCTYPE svg PUBLIC "-//W3C//DTD SVG 20010904//EN"
 "http://www.w3.org/TR/2001/REC-SVG-20010904/DTD/svg10.dtd">
<svg version="1.0" xmlns="http://www.w3.org/2000/svg"
 width="720.000000pt" height="479.000000pt" viewBox="0 0 720.000000 479.000000"
 preserveAspectRatio="xMidYMid meet">

<g transform="translate(0.000000,479.000000) scale(0.100000,-0.100000)"
fill="#00FFFF" stroke="none">
<path d="M0 3551 c0 -1212 0 -1240 19 -1246 11 -3 26 -16 34 -29 14 -20 21
-22 74 -19 45 4 63 10 80 29 24 26 53 32 53 11 0 -8 11 -19 25 -25 16 -7 23
-17 19 -27 -5 -11 -22 -15 -69 -15 -74 0 -73 0 -75 -100 -2 -92 -3 -90 24 -90
51 0 88 -90 41 -99 -11 -2 -24 -10 -30 -18 -9 -12 -30 -14 -103 -12 l-92 4 0
-957 0 -958 3600 0 3600 0 0 1090 c0 865 -3 1090 -12 1090 -7 0 -53 5 -102 10
-61 7 -93 7 -100 0 -18 -18 -28 -10 -22 17 4 16 16 36 28 46 11 9 25 36 29 60
22 106 22 107 6 107 -9 0 -22 13 -30 30 -20 38 -4 78 33 82 19 2 26 10 30 32
7 43 30 46 30 4 1 -43 32 -82 60 -73 37 12 48 44 49 144 1 79 -1 95 -16 107
-21 16 -99 19 -108 4 -3 -5 -17 -10 -31 -10 -13 0 -24 -4 -24 -10 0 -10 13
-14 36 -11 16 2 37 -26 29 -39 -3 -5 -26 -10 -51 -10 -40 0 -45 -2 -39 -19 5
-16 -1 -20 -38 -25 -50 -8 -80 1 -73 20 5 14 -5 18 -33 14 -20 -2 -47 32 -43
55 2 16 -6 24 -34 34 -26 9 -39 10 -47 2 -6 -6 -27 -11 -46 -12 l-36 0 35 -12
c23 -8 36 -20 40 -37 8 -36 38 -38 42 -4 5 48 28 41 28 -9 0 -37 -4 -47 -21
-52 -27 -9 -91 3 -84 16 4 5 -1 9 -10 9 -9 0 -13 -4 -10 -10 6 -10 -10 -13
-55 -11 l-25 1 24 -13 c25 -15 44 -56 66 -145 16 -62 12 -82 -16 -75 -13 4
-19 0 -19 -10 0 -11 7 -14 26 -11 23 4 25 2 18 -18 -5 -13 -9 -36 -9 -53 -2
-60 -28 -175 -40 -175 -13 0 -14 184 -2 197 12 12 7 33 -8 33 -8 0 -26 18 -41
39 -14 22 -32 42 -40 45 -21 8 -28 -13 -10 -33 44 -49 -11 -40 -58 9 -21 22
-44 40 -53 40 -9 0 2 -16 26 -39 44 -42 43 -45 -16 -73 -30 -15 -33 -15 -49 3
-11 12 -30 19 -52 19 -30 0 -33 -2 -21 -16 10 -13 10 -17 -2 -25 -8 -5 -22 -9
-31 -9 -19 0 -21 -5 -18 -62 1 -22 -3 -38 -9 -38 -6 0 -11 18 -11 40 0 22 -5
40 -10 40 -6 0 -8 -15 -4 -40 8 -49 -11 -55 -20 -6 -9 46 -29 62 -50 41 -9 -9
-17 -24 -17 -33 -3 -40 -5 -45 -16 -49 -7 -3 -13 2 -13 11 0 9 -4 16 -10 16
-5 0 -12 11 -16 25 -5 20 -11 24 -28 20 -20 -6 -19 -5 4 15 18 17 34 21 67 18
28 -2 44 1 48 9 6 18 25 16 25 -2 0 -8 6 -15 14 -15 19 0 29 17 16 25 -18 11
-10 24 18 27 26 3 27 4 30 78 1 41 7 86 13 100 13 32 99 97 99 76 0 -10 6 -13
15 -10 8 4 12 11 8 17 -4 6 3 8 21 3 14 -3 26 -3 26 2 0 5 12 14 26 21 19 8
25 17 21 31 -3 14 0 20 10 20 11 0 14 -7 11 -25 -4 -19 -1 -25 11 -25 22 0 41
19 41 41 0 10 9 24 19 31 19 14 19 14 1 26 -16 10 -21 8 -32 -7 -8 -11 -29
-20 -54 -22 l-42 -4 24 28 c24 28 28 40 25 65 -1 6 5 12 14 12 19 0 19 10 -2
40 -10 14 -16 37 -14 52 1 16 -2 28 -7 28 -13 0 -23 -27 -16 -45 4 -10 0 -15
-15 -15 -24 0 -30 37 -9 58 14 14 0 16 -21 3 -8 -5 -12 -19 -9 -35 3 -16 1
-26 -6 -26 -7 0 -32 -19 -55 -42 -39 -37 -45 -40 -56 -25 -9 13 -28 17 -72 17
-59 0 -60 0 -60 29 0 21 6 31 19 34 14 4 18 13 16 34 -3 24 1 28 22 28 14 1
46 9 72 19 50 19 144 19 157 -1 3 -6 20 -17 37 -26 17 -9 34 -23 37 -30 3 -8
25 -17 49 -20 35 -5 47 -2 66 15 12 12 22 27 22 35 0 15 26 18 35 4 3 -5 0
-13 -5 -16 -6 -4 -9 -19 -5 -34 4 -19 1 -32 -10 -41 -18 -15 -20 -61 -3 -78
14 -14 35 23 44 79 4 22 11 39 17 39 5 0 7 13 4 30 -4 17 -2 30 3 30 6 0 10
-11 10 -24 0 -13 7 -29 15 -36 13 -11 20 -9 40 10 14 13 25 29 25 37 0 9 14
13 43 13 32 0 44 -4 44 -15 0 -10 -6 -13 -18 -10 -21 7 -69 -4 -69 -16 0 -15
44 -21 73 -10 17 7 27 7 27 1 0 -14 34 -12 48 2 7 7 12 20 12 30 0 23 38 32
75 17 l30 -12 -42 -9 c-24 -5 -43 -13 -43 -18 0 -13 37 -22 60 -15 12 4 27 2
34 -4 10 -8 17 -6 28 7 29 32 38 61 38 116 l0 56 -37 2 c-79 3 -88 4 -102 12
-8 5 -16 4 -20 -2 -9 -16 -449 -18 -464 -3 -8 8 -7 17 1 33 6 13 11 32 9 43
-1 12 4 20 13 20 10 0 16 -12 18 -33 5 -50 38 -38 56 21 4 13 16 17 56 17 48
0 50 -1 50 -27 0 -48 14 -58 39 -27 11 14 21 33 21 41 0 21 104 14 106 -7 1
-8 2 -23 3 -33 2 -26 39 -4 43 25 2 17 11 24 31 26 30 4 32 0 15 -27 -9 -15
-9 -23 2 -35 12 -15 14 -15 32 1 12 11 15 20 8 27 -17 17 -11 36 10 36 15 0
20 -7 20 -29 0 -17 5 -33 10 -36 16 -10 40 14 40 41 0 14 8 25 20 29 15 5 20
15 20 39 0 30 -4 34 -32 40 -17 3 -52 4 -77 1 -25 -2 -317 -7 -648 -10 -533
-5 -603 -4 -603 9 0 9 11 40 24 70 21 48 29 56 58 60 18 3 313 5 655 3 l622
-2 0 392 0 392 -22 16 c-20 14 -23 14 -39 -5 -20 -25 -33 -25 -58 0 -20 20
-20 21 -1 41 11 12 25 18 31 14 7 -4 23 -2 36 5 19 11 26 11 39 0 13 -11 15 5
15 148 l0 161 -38 3 c-25 2 -37 8 -37 18 0 19 41 25 61 10 12 -11 14 2 14 89
l0 101 -3600 0 -3600 0 0 -1239z m4723 1145 c6 -15 -13 -36 -51 -55 -18 -10
-31 -8 -68 8 -57 25 -50 46 11 38 31 -5 46 -2 55 8 16 19 46 19 53 1z m2006
-97 c20 -36 9 -64 -19 -49 -23 13 -40 48 -32 68 7 20 35 10 51 -19z m-119 0
c9 -17 8 -23 -7 -35 -27 -20 -42 -17 -36 9 6 21 21 47 29 47 2 0 8 -9 14 -21z
m-5570 -27 c0 -17 -25 -32 -53 -32 l-29 0 23 20 c24 19 59 27 59 12z m2158
-16 c4 -20 -60 -50 -88 -41 -19 6 -46 33 -39 39 2 3 24 7 49 11 25 4 47 9 49
11 9 9 26 -3 29 -20z m2740 2 c17 -17 15 -58 -2 -58 -18 0 -46 27 -46 44 0 27
27 35 48 14z m-2303 -32 c16 -12 17 -16 6 -30 -17 -20 -45 -21 -61 -1 -10 12
-10 18 0 30 16 19 31 19 55 1z m73 -14 c5 -17 -27 -27 -41 -13 -9 9 -8 14 3
21 18 11 32 8 38 -8z m2725 -16 c3 -7 20 -16 38 -20 25 -5 37 -2 54 14 37 35
61 21 50 -29 -5 -24 -12 -29 -47 -34 -62 -8 -143 41 -122 74 8 13 21 11 27 -5z
m-4925 -19 c2 -10 -3 -17 -12 -17 -18 0 -29 16 -21 31 9 14 29 6 33 -14z
m1950 11 c7 -7 12 -22 12 -34 0 -27 43 -46 96 -42 29 2 39 -1 39 -12 0 -11
-16 -16 -63 -20 -76 -6 -96 2 -88 36 5 19 2 24 -12 24 -28 0 -43 20 -31 42 11
21 30 23 47 6z m2376 -25 c2 -10 8 -42 11 -70 7 -51 6 -53 -20 -63 -37 -14
-65 -4 -65 24 0 12 -5 27 -11 33 -6 6 -9 23 -7 39 5 44 81 75 92 37z m-3340
-1 c7 -11 -67 -117 -79 -111 -5 2 -9 20 -8 39 4 47 69 101 87 72z m536 -6 c0
-16 -21 -26 -56 -26 -30 0 -31 18 -1 30 33 13 57 12 57 -4z m-141 -52 c-17
-20 -39 -17 -39 5 0 23 20 32 38 18 9 -7 9 -13 1 -23z m1426 16 c0 -11 -17
-17 -60 -22 -65 -8 -87 1 -65 27 18 22 125 17 125 -5z m2099 1 c9 -14 -4 -41
-20 -41 -15 0 -17 10 -8 34 7 18 20 21 28 7z m-1925 -28 c12 -9 -18 -22 -59
-25 -40 -3 -45 -1 -48 20 -3 22 -2 23 50 16 29 -4 55 -8 57 -11z m2105 -9 c23
-22 8 -39 -15 -18 -10 9 -19 21 -19 26 0 13 17 9 34 -8z m-4244 -14 c0 -21
-24 -28 -35 -10 -8 14 3 30 21 30 8 0 14 -9 14 -20z m-398 -12 c-7 -7 -12 -8
-12 -2 0 14 12 26 19 19 2 -3 -1 -11 -7 -17z m-72 -6 c0 -26 -11 -34 -27 -21
-10 9 -10 15 -2 25 16 19 29 17 29 -4z m3700 -22 c30 -23 85 -26 94 -5 8 21
40 19 61 -5 40 -44 -18 -67 -107 -42 -26 7 -62 13 -80 13 -18 0 -48 1 -65 3
-18 2 -40 4 -48 5 -30 2 -16 31 15 31 17 0 30 -5 30 -12 0 -7 10 -2 22 10 27
27 45 27 78 2z m-1330 0 c0 -5 -5 -10 -11 -10 -5 0 -7 5 -4 10 3 6 8 10 11 10
2 0 4 -4 4 -10z m493 -3 c15 -10 16 -17 6 -45 -9 -26 -16 -32 -40 -32 -21 0
-32 7 -40 24 -23 49 29 86 74 53z m165 0 c9 -10 5 -22 -15 -50 -29 -41 -31
-42 -68 -25 -31 14 -32 34 -3 65 24 25 69 31 86 10z m1296 -2 c17 -17 11 -45
-9 -45 -14 0 -27 38 -19 52 7 11 10 10 28 -7z m160 -1 c10 -27 -3 -30 -26 -6
l-22 22 21 0 c11 0 24 -7 27 -16z m-1055 -11 c8 -6 -33 -32 -51 -33 -22 0 -43
36 -25 43 12 5 68 -2 76 -10z m-1598 -52 c-12 -16 -21 -36 -21 -45 0 -19 -11
-21 -28 -4 -13 13 -16 60 -5 71 3 4 22 7 40 7 l34 0 -20 -29z m3045 -51 c1
-41 4 -86 5 -99 6 -34 -16 -37 -30 -4 -6 15 -20 39 -30 53 -16 20 -21 22 -35
11 -11 -10 -16 -31 -16 -75 0 -33 -5 -68 -11 -76 -8 -13 -12 -12 -26 8 -8 12
-24 22 -34 22 -14 0 -19 -11 -24 -55 -4 -30 -8 -55 -9 -55 0 0 -16 4 -33 9
-20 6 -35 6 -38 0 -9 -14 -25 -11 -25 6 0 8 7 15 15 15 8 0 17 11 21 24 3 14
17 32 30 41 13 8 24 24 24 35 0 10 9 22 20 25 12 4 20 15 20 28 0 13 9 26 23
32 13 6 23 21 25 37 2 15 14 34 28 42 13 9 24 23 24 30 0 16 23 25 55 23 18
-2 20 -10 21 -77z m84 66 c0 -8 -3 -22 -6 -30 -5 -13 -9 -14 -20 -5 -21 18
-17 49 6 49 11 0 20 -6 20 -14z m-5062 -18 c2 -10 -8 -20 -27 -26 l-31 -11 16
30 c16 31 37 34 42 7z m81 -14 c-9 -11 -15 -12 -23 -4 -8 8 -6 15 9 26 23 17
34 2 14 -22z m4443 -4 c16 -37 44 -39 60 -5 14 30 20 31 43 5 32 -35 6 -60
-80 -74 -38 -6 -41 -4 -64 29 -23 34 -23 36 -6 55 24 27 31 25 47 -10z m-2112
5 c0 -8 -7 -15 -15 -15 -26 0 -18 20 13 29 1 1 2 -6 2 -14z m1792 3 c3 -7 2
-22 0 -35 -4 -20 -10 -22 -51 -22 -26 1 -58 -4 -70 -11 -13 -6 -25 -9 -28 -6
-3 3 6 10 21 15 14 6 26 17 26 25 0 30 94 60 102 34z m1051 -12 c4 -9 -3 -16
-16 -20 -26 -6 -31 -2 -24 19 8 19 33 20 40 1z m-5524 -37 c-16 -9 -29 -3 -29
16 0 18 34 24 38 6 2 -7 -2 -17 -9 -22z m2451 31 c0 -5 -4 -10 -10 -10 -5 0
-10 5 -10 10 0 6 5 10 10 10 6 0 10 -4 10 -10z m791 -39 c-22 -40 -49 -19 -29
24 10 22 13 24 26 12 11 -12 11 -19 3 -36z m299 15 c-5 -5 -10 -21 -10 -34 0
-30 -29 -26 -41 6 -12 31 24 70 47 51 10 -8 12 -15 4 -23z m154 28 c9 -3 16
-12 16 -20 0 -8 5 -23 12 -34 17 -27 2 -37 -23 -14 -27 24 -42 52 -34 64 7 12
8 12 29 4z m600 0 c9 -3 16 -13 16 -22 0 -19 -29 -52 -46 -52 -11 0 -54 50
-54 63 0 13 60 20 84 11z m311 -39 c0 -29 -4 -41 -17 -43 -12 -2 -19 6 -23 32
-8 40 0 58 23 54 13 -2 17 -14 17 -43z m-757 4 c2 -14 -4 -31 -12 -38 -13 -11
-22 -9 -51 9 -56 34 -46 63 20 58 35 -3 40 -6 43 -29z m192 10 c0 -10 -13 -12
-47 -9 -13 1 -23 -4 -23 -10 0 -6 -10 -10 -22 -8 -36 5 -29 33 9 33 17 0 34 3
38 6 8 9 45 -1 45 -12z m-2579 -45 c14 -13 21 -13 40 -3 22 11 32 5 30 -18 -1
-11 -111 -11 -117 -1 -6 9 13 38 24 38 3 0 13 -7 23 -16z m427 -6 c20 -20 14
-40 -10 -36 -15 2 -24 11 -26 26 -4 24 16 30 36 10z m897 -8 c-3 -5 -10 -10
-16 -10 -5 0 -9 5 -9 10 0 6 7 10 16 10 8 0 12 -4 9 -10z m55 -5 c0 -2 -5 -15
-11 -29 -10 -20 -9 -30 5 -51 23 -36 13 -45 -42 -39 -56 7 -95 41 -67 57 11 6
21 5 28 -2 14 -14 57 -14 57 0 0 6 -5 19 -10 30 -6 11 -8 24 -5 29 6 10 45 14
45 5z m1233 -45 c6 -16 17 -30 24 -30 15 0 17 -26 3 -35 -5 -3 -20 1 -32 9
-12 9 -31 16 -41 16 -29 0 -33 31 -8 52 32 25 41 23 54 -12z m1267 4 c0 -17
-24 -29 -40 -19 -8 5 -6 13 6 26 18 20 34 17 34 -7z m-1170 1 c0 -8 -7 -15
-16 -15 -14 0 -14 3 -4 15 7 8 14 15 16 15 2 0 4 -7 4 -15z m-320 -17 c25 -28
21 -44 -11 -40 -15 2 -32 -5 -44 -18 -22 -24 -50 -26 -59 -4 -5 13 -14 15 -44
9 -20 -4 -61 -7 -90 -6 -30 0 -62 -5 -71 -11 -14 -8 -32 -8 -72 1 -30 7 -66
15 -82 18 -34 7 -43 19 -27 38 9 11 17 12 30 5 10 -6 32 -10 49 -10 16 0 31
-6 34 -12 3 -10 8 -9 22 2 12 10 43 15 89 16 39 1 79 2 89 3 9 1 25 1 35 1 9
0 33 1 54 1 22 0 38 6 42 15 8 21 32 17 56 -8z m450 10 c0 -27 -13 -58 -21
-52 -16 9 -10 64 6 64 8 0 15 -6 15 -12z m411 1 c15 -7 24 -7 35 1 20 17 64 4
64 -19 0 -31 -24 -43 -74 -36 -49 8 -72 26 -62 50 6 18 11 18 37 4z m-217 -15
c18 -17 22 -64 6 -64 -5 0 -10 -7 -10 -16 0 -14 -2 -14 -22 0 -12 9 -33 16
-46 16 -49 0 -77 31 -51 57 8 8 18 8 34 1 18 -8 29 -7 46 6 28 19 24 19 43 0z
m-3794 -4 c0 -5 -5 -10 -11 -10 -5 0 -7 5 -4 10 3 6 8 10 11 10 2 0 4 -4 4
-10z m1707 -7 c5 -14 -40 -28 -57 -18 -8 5 -8 11 1 21 14 17 51 15 56 -3z
m524 -8 c-1 -15 -24 -12 -29 3 -3 9 2 13 12 10 10 -1 17 -7 17 -13z m-251 -14
c0 -27 -26 -46 -34 -25 -11 29 -6 44 14 44 13 0 20 -7 20 -19z m-3184 -15 c11
-28 0 -44 -23 -35 -15 6 -20 14 -16 28 6 24 31 28 39 7z m84 -21 c0 -19 -37
-38 -58 -30 -15 6 -13 10 11 31 29 25 47 24 47 -1z m4377 19 c-3 -3 -12 -4
-19 -1 -8 3 -5 6 6 6 11 1 17 -2 13 -5z m1670 -47 c-16 -34 -22 -38 -49 -35
-76 7 -53 76 25 74 l43 -1 -19 -38z m-1309 21 c18 -18 15 -28 -8 -28 -13 0
-20 7 -20 20 0 23 10 26 28 8z m329 -25 l-2 -38 67 2 c37 1 70 -2 73 -7 3 -5
1 -27 -4 -47 -6 -21 -13 -50 -16 -65 -6 -31 -56 -58 -106 -58 -17 0 -37 -9
-46 -20 -13 -15 -30 -20 -70 -20 -58 0 -62 -5 -50 -62 1 -8 -10 -14 -28 -15
-116 -9 -165 -16 -165 -24 0 -5 -12 -15 -27 -23 l-28 -15 50 -1 c97 -3 210
-11 215 -17 3 -3 -1 -8 -8 -10 -10 -4 -8 -9 5 -19 15 -11 -8 -14 -167 -15
-234 -2 -599 -8 -940 -14 -504 -9 -705 -8 -727 4 -16 8 -22 8 -26 -2 -3 -9
-13 -7 -37 7 -34 19 -106 18 -119 -2 -4 -7 -159 -11 -426 -13 l-420 -2 2 39
c2 32 -1 41 -20 49 -12 6 -33 8 -47 4 -14 -4 -76 -7 -139 -8 -100 -1 -112 -3
-101 -16 14 -17 110 -21 110 -5 0 6 17 10 38 10 33 0 39 -4 50 -32 6 -17 11
-33 9 -34 -10 -11 -262 -15 -1052 -17 -827 -2 -1118 4 -1100 21 6 6 83 12 144
12 14 0 35 7 48 15 20 14 30 14 84 1 69 -16 102 -11 97 13 -3 11 -14 16 -41
16 -20 0 -37 3 -37 8 0 4 -67 7 -150 7 -130 0 -150 2 -150 16 0 11 -6 14 -20
9 -20 -6 -25 2 -20 35 3 24 7 25 108 27 53 0 169 4 257 8 88 3 284 8 435 11
151 3 282 6 290 6 8 0 71 -2 139 -5 111 -4 127 -7 142 -26 16 -19 17 -19 22
-2 6 24 69 32 117 16 28 -10 41 -9 68 2 40 17 122 14 122 -4 0 -18 40 -16 84
2 29 12 75 16 199 15 89 -1 187 -1 218 -1 39 1 61 -4 69 -14 7 -8 20 -15 29
-15 9 0 22 -5 29 -12 9 -9 12 -9 12 0 0 7 8 12 19 12 10 0 24 6 30 14 9 10 6
17 -13 30 -14 9 -32 16 -41 16 -8 0 -15 7 -15 15 0 9 9 15 23 15 12 0 28 4 36
9 20 13 41 2 41 -21 0 -43 67 -63 102 -31 10 9 18 23 18 32 1 10 7 5 16 -11
13 -26 20 -28 72 -28 31 0 67 -3 79 -6 17 -5 25 1 39 28 9 18 18 35 20 37 2 2
26 5 54 6 54 3 64 -4 64 -45 1 -19 7 -26 27 -28 21 -2 28 2 33 22 8 34 50 45
88 23 21 -12 34 -14 57 -6 25 9 33 7 56 -15 19 -18 34 -24 50 -20 35 9 208 9
227 0 17 -8 53 23 53 47 1 11 6 11 48 0 11 -4 17 0 17 11 0 9 -4 16 -10 16 -5
0 -10 7 -10 15 0 8 5 15 10 15 6 0 10 9 10 20 0 14 -9 21 -35 26 -65 12 -36
19 90 22 130 4 143 -1 111 -37 -17 -19 -10 -71 9 -71 8 0 24 -14 37 -30 l24
-31 82 7 c68 6 83 10 88 26 8 26 3 29 -51 35 -45 6 -62 27 -30 39 8 4 15 19
15 34 0 34 12 44 41 35 15 -5 20 -14 18 -33 -4 -40 9 -69 32 -75 12 -3 18 -10
15 -16 -12 -19 40 -42 98 -42 32 -1 60 1 63 5 3 3 14 1 24 -4 14 -8 21 -5 33
11 8 12 12 27 9 34 -6 18 14 55 31 55 8 0 19 -7 26 -15 7 -8 8 -15 3 -15 -5 0
-18 -6 -28 -14 -16 -12 -17 -16 -6 -30 9 -11 30 -16 70 -16 44 0 60 -4 73 -20
20 -23 77 -20 90 5 6 9 23 15 46 15 26 0 41 6 50 20 10 17 8 21 -19 36 -28 14
-30 18 -17 30 12 12 20 13 41 3 22 -10 30 -9 44 3 15 14 20 14 30 3 10 -11 7
-17 -13 -33 -24 -17 -25 -21 -13 -40 10 -16 24 -22 51 -22 20 0 43 -3 52 -6 9
-3 16 -1 16 6 0 6 -4 8 -10 5 -5 -3 -10 -1 -10 5 0 18 30 23 48 8 22 -19 178
-23 189 -5 5 7 22 18 38 26 58 26 80 41 78 51 -4 12 24 13 29 1 4 -12 78 -26
78 -14 0 4 -18 30 -40 57 -22 26 -40 54 -40 62 0 14 34 37 42 29 2 -3 20 11
38 30 28 29 41 35 77 35 l42 0 -2 -37z m-3549 -13 c13 -37 -1 -49 -29 -24 -22
20 -25 40 -6 47 22 9 25 7 35 -23z m2237 20 c4 -6 -6 -10 -22 -10 -22 0 -25 2
-13 10 19 12 27 12 35 0z m-2594 -11 c15 -7 24 -7 34 1 18 15 35 5 35 -20 0
-21 -64 -70 -90 -70 -9 0 -26 9 -38 20 -21 20 -21 23 -7 50 16 32 34 37 66 19z
m1536 -14 c4 -32 -31 -63 -82 -75 -49 -11 -65 -7 -65 15 0 8 15 17 35 21 24 4
41 15 52 36 20 33 57 35 60 3z m-1277 1 c0 -15 -37 -32 -47 -22 -9 8 17 36 33
36 8 0 14 -6 14 -14z m-580 -58 c0 -17 -28 -38 -49 -38 -6 0 -15 9 -21 20 -9
17 -6 23 22 40 34 20 48 14 48 -22z m1333 23 c3 -12 -1 -22 -11 -26 -20 -7
-36 9 -29 29 9 22 34 20 40 -3z m-88 -12 c0 -7 -8 -15 -17 -17 -18 -3 -25 18
-11 32 10 10 28 1 28 -15z m-210 -2 c24 -18 9 -25 -37 -20 -26 4 -35 9 -31 19
7 18 44 18 68 1z m655 -13 c0 -10 -7 -14 -22 -12 -32 5 -35 28 -4 28 17 0 26
-5 26 -16z m-1780 -9 c0 -8 -4 -15 -9 -15 -13 0 -22 16 -14 24 11 11 23 6 23
-9z m3875 -10 c0 -13 -8 -21 -24 -23 -32 -5 -48 12 -31 33 18 22 55 15 55 -10z
m740 -40 c-6 -89 5 -115 48 -115 19 0 37 3 41 8 4 4 12 8 17 8 5 1 13 2 18 3
5 0 12 21 15 46 8 51 33 73 64 56 10 -6 28 -7 40 -4 30 7 40 -22 17 -47 -11
-12 -13 -20 -7 -20 7 0 12 -9 12 -19 0 -17 9 -20 68 -23 44 -3 75 0 89 9 12 7
29 10 37 7 11 -4 21 5 33 30 9 20 21 36 26 36 6 0 5 -5 -1 -12 -6 -8 -6 -22
-1 -36 8 -21 14 -23 66 -20 l58 3 5 50 c4 38 9 51 24 53 24 5 38 -10 42 -47 3
-24 -2 -34 -21 -47 -24 -16 -25 -18 -11 -39 15 -23 15 -23 -43 -27 -44 -2 -57
0 -54 10 6 15 -53 17 -62 2 -3 -5 -1 -10 4 -10 19 0 12 -17 -8 -23 -26 -6 -91
15 -91 30 0 20 -27 15 -50 -9 -17 -19 -32 -23 -81 -23 -32 0 -51 -3 -42 -6 13
-5 7 -9 -21 -14 -31 -6 -56 -2 -115 19 -89 30 -91 31 -91 11 0 -8 -12 -17 -27
-21 -16 -3 -34 -7 -40 -10 -7 -2 -13 1 -13 6 0 6 -7 10 -15 10 -8 0 -15 6 -15
14 0 15 -57 39 -71 30 -14 -8 -6 -38 11 -45 9 -4 1 -9 -24 -14 -32 -6 -42 -4
-52 10 -7 10 -10 23 -6 29 4 6 7 15 7 20 0 6 15 14 33 18 18 5 32 15 32 24 0
21 40 33 89 27 33 -5 41 -3 41 11 0 12 -9 16 -34 16 -19 0 -38 5 -42 11 -10
17 12 32 46 31 16 0 30 4 30 9 0 5 -7 9 -15 9 -8 0 -15 9 -15 20 0 15 7 20 30
20 l29 0 -4 -65z m-1348 30 c5 -16 -14 -38 -26 -31 -18 12 -13 48 6 44 9 -2
18 -7 20 -13z m156 -26 c-8 -29 -19 -23 -17 9 2 37 3 39 13 23 5 -7 6 -22 4
-32z m157 21 c0 -11 -4 -20 -10 -20 -5 0 -10 9 -10 20 0 11 5 20 10 20 6 0 10
-9 10 -20z m-1215 0 c5 -8 -13 -43 -42 -79 -6 -8 -72 72 -67 81 7 12 102 10
109 -2z m989 -11 c-8 -14 -24 -10 -24 6 0 9 6 12 15 9 8 -4 12 -10 9 -15z
m-4116 -26 c3 -20 -1 -23 -32 -23 -38 0 -47 15 -24 38 20 20 53 10 56 -15z
m2019 1 c3 -8 1 -20 -4 -25 -12 -12 -48 14 -39 29 10 17 36 15 43 -4z m2721
-17 c2 -10 -3 -17 -12 -17 -18 0 -29 16 -21 31 9 14 29 6 33 -14z m-3810 -8
c-2 -6 -8 -10 -13 -10 -5 0 -11 4 -13 10 -2 6 4 11 13 11 9 0 15 -5 13 -11z
m3253 -4 c0 -5 -9 -11 -21 -13 -20 -3 -27 8 -13 22 10 9 34 3 34 -9z m1324
-201 c13 -5 14 -8 3 -15 -11 -7 -11 -9 1 -9 10 0 11 -3 2 -14 -10 -12 2 -14
82 -10 51 2 120 7 153 11 32 5 77 6 99 3 79 -10 -4 -23 -187 -29 l-176 -6 -4
33 c-5 42 -2 47 27 36z m-172 -35 c17 -16 30 -19 57 -15 24 3 30 2 19 -4 -17
-10 -259 -16 -259 -6 0 3 0 13 0 21 0 11 17 15 73 18 39 1 76 4 80 5 4 1 18
-7 30 -19z m700 -16 c-7 -2 -21 -2 -30 0 -10 3 -4 5 12 5 17 0 24 -2 18 -5z
m-1625 -157 c8 -5 12 -39 12 -109 0 -129 5 -146 41 -154 21 -4 30 -13 34 -35
7 -29 -4 -54 -12 -30 -3 8 -12 0 -22 -19 -23 -42 -38 -47 -50 -16 -12 30 -38
38 -67 20 -18 -12 -28 -11 -63 3 -46 18 -49 26 -23 53 11 13 29 18 54 17 l37
-3 -6 51 c-3 28 -10 57 -16 64 -8 10 -126 12 -606 7 -328 -3 -933 -7 -1346
-10 -412 -3 -1028 -8 -1367 -11 -340 -4 -629 -3 -643 0 -28 7 -33 27 -10 46
40 34 0 90 -53 73 -23 -7 -123 -13 -187 -11 -11 0 -52 1 -92 2 -39 0 -75 4
-79 9 -11 11 -52 9 -76 -4 -15 -8 -26 -8 -43 1 -14 8 -38 10 -62 6 -61 -11
-173 -1 -173 14 0 11 217 22 360 19 136 -2 3688 20 3775 24 126 6 671 1 683
-7z m-5188 -105 c0 -58 -4 -82 -15 -91 -12 -10 -15 -9 -15 4 0 10 4 26 10 36
7 12 5 32 -6 64 -13 37 -14 50 -4 61 22 26 30 5 30 -74z m-105 69 c3 -5 -1
-10 -10 -10 -9 0 -13 5 -10 10 3 6 8 10 10 10 2 0 7 -4 10 -10z m6265 -209 c0
-15 3 -31 7 -34 9 -10 53 33 53 51 0 7 6 12 13 9 6 -2 11 -14 9 -27 -1 -12 3
-29 9 -36 9 -11 8 -18 0 -28 -16 -19 -471 -24 -471 -5 0 8 -5 7 -16 -2 -11 -9
-55 -12 -167 -11 l-151 1 48 -41 c27 -23 55 -57 62 -75 15 -34 34 -45 34 -19
0 8 9 17 20 21 22 7 70 -21 70 -41 0 -36 47 -23 70 20 35 66 115 -15 111 -111
-1 -43 11 -56 27 -28 12 22 37 9 62 -31 11 -20 25 -32 30 -29 6 3 10 2 10 -3
0 -5 -16 -9 -36 -10 -28 -1 -35 2 -30 13 3 9 0 15 -8 15 -27 0 -45 -12 -39
-26 3 -8 0 -14 -7 -14 -9 0 -11 -12 -7 -40 8 -58 31 -90 67 -90 33 0 45 -13
33 -35 -8 -13 -12 -12 -31 6 -20 18 -26 19 -52 7 -17 -7 -30 -16 -30 -20 0 -5
-6 -8 -14 -8 -14 0 -14 13 0 73 4 16 2 27 -4 27 -6 0 -12 10 -14 23 -3 19 -10
22 -52 25 -50 3 -86 -16 -86 -45 0 -11 -4 -11 -20 -3 -26 14 -26 3 1 -19 13
-10 26 -40 34 -81 22 -102 23 -100 -41 -100 -31 0 -53 4 -49 9 14 24 -15 17
-39 -8 -26 -27 -30 -28 -59 -16 -39 15 -117 7 -164 -18 -38 -20 -42 -32 -13
-40 16 -4 20 -14 20 -51 0 -25 6 -50 13 -57 17 -17 5 -149 -22 -223 -11 -33
-21 -65 -21 -72 0 -22 -22 -64 -31 -58 -4 2 -6 11 -2 19 3 8 0 15 -6 15 -19 0
-12 46 13 83 15 22 22 44 19 56 -3 12 0 27 5 34 8 10 5 33 -14 88 -14 41 -29
77 -33 82 -4 4 -20 -17 -36 -48 -33 -62 -45 -69 -45 -25 0 28 -1 29 -27 19
-55 -21 -70 11 -26 55 19 19 27 38 28 64 0 30 4 38 23 40 16 3 22 -2 22 -17 0
-22 19 -40 22 -19 0 7 1 28 2 45 1 36 7 34 -104 38 -36 2 -84 9 -108 18 -45
16 -62 8 -38 -16 17 -17 11 -27 -16 -27 -10 0 -18 -5 -18 -11 0 -5 4 -8 9 -5
14 9 41 -5 41 -20 0 -8 -7 -17 -15 -20 -25 -10 -17 -23 12 -18 23 4 25 3 13
-11 -10 -12 -10 -15 4 -15 9 0 16 5 16 10 0 6 5 10 10 10 22 0 4 -257 -21
-286 -7 -8 -6 -14 3 -17 10 -4 11 -7 1 -18 -11 -11 -13 -11 -13 2 0 7 -11 -6
-25 -30 -14 -23 -25 -55 -25 -70 0 -37 28 -91 46 -91 38 0 83 30 105 71 23 41
81 85 99 74 7 -4 26 -99 23 -115 -1 -3 -4 -32 -8 -65 -7 -60 -7 -60 12 -38 14
16 23 19 34 12 11 -8 11 -12 1 -16 -6 -2 -10 -9 -6 -14 7 -12 -23 -42 -36 -34
-13 8 -50 -53 -50 -82 0 -13 11 -30 26 -40 26 -17 27 -18 21 -102 -4 -47 -11
-87 -17 -89 -5 -2 -10 -10 -10 -18 0 -8 -4 -14 -10 -14 -5 0 -7 -6 -4 -13 2
-7 -2 -21 -10 -32 -11 -16 -18 -17 -37 -8 -22 11 -22 12 -4 13 11 1 0 6 -24
11 -40 8 -87 36 -77 47 3 2 28 -4 55 -13 28 -9 57 -14 64 -12 7 3 5 6 -6 6
-10 1 -36 10 -57 21 -22 11 -40 18 -40 14 0 -3 -14 8 -32 25 -30 29 -34 57 -5
32 27 -22 -3 91 -35 132 -17 22 -27 45 -24 53 9 24 -5 66 -20 60 -12 -5 -34
47 -34 82 0 7 -6 12 -12 11 -46 -6 -51 -1 -44 48 6 43 26 85 26 55 0 -7 9 -21
19 -31 24 -24 33 -9 24 44 -4 26 -10 35 -20 31 -8 -4 -21 -6 -28 -6 -20 0 -35
-64 -35 -152 0 -42 -4 -88 -10 -102 -5 -14 -14 -65 -20 -113 -6 -49 -13 -104
-15 -123 -3 -21 6 -71 21 -124 29 -97 29 -123 0 -276 -9 -47 -16 -109 -16
-137 0 -53 -11 -67 -28 -37 -5 10 -23 15 -49 16 l-41 0 10 34 c14 53 -23 298
-56 364 -14 28 -23 56 -20 61 3 6 1 15 -4 22 -10 12 -22 67 -23 100 0 31 -18
18 -43 -31 -19 -38 -23 -59 -20 -105 l4 -57 -40 0 c-22 0 -40 -4 -40 -10 0 -5
-4 -10 -10 -10 -5 0 -10 7 -10 15 0 11 -11 15 -42 15 -24 0 -63 5 -88 11 -25
6 -57 11 -73 11 -15 -1 -25 3 -22 7 2 5 -3 27 -12 49 -15 38 -15 43 1 67 25
38 35 31 38 -27 3 -49 4 -51 15 -28 15 36 100 158 129 187 32 32 91 57 100 42
8 -13 27 3 30 25 1 8 13 30 27 48 39 53 60 119 53 172 l-6 45 37 10 c21 6 57
13 81 17 l43 7 -5 -44 c-3 -24 -19 -87 -36 -139 -31 -100 -37 -158 -19 -192 8
-15 8 -18 0 -14 -7 4 -9 1 -5 -7 6 -18 52 -28 60 -15 3 5 12 7 20 4 8 -3 14
-1 14 4 0 6 -4 10 -9 10 -15 0 -24 41 -12 53 8 8 11 6 11 -7 0 -28 24 -13 31
20 4 16 7 63 8 105 1 54 9 100 28 155 19 59 26 101 27 166 1 48 5 90 9 94 4 4
7 -4 7 -18 0 -22 4 -25 38 -22 20 1 40 2 44 3 13 2 38 59 38 85 0 33 -30 96
-46 96 -7 0 -27 -12 -44 -26 -36 -31 -48 -25 -31 13 10 21 14 24 21 13 7 -12
10 -12 16 3 3 9 12 17 20 17 8 0 14 9 14 20 0 16 -7 20 -31 20 -22 0 -32 -5
-36 -20 -6 -24 -25 -27 -21 -4 2 10 -1 19 -7 20 -5 2 -10 -11 -9 -28 0 -42
-13 -63 -32 -47 -10 8 -14 8 -14 0 0 -6 -8 -11 -17 -11 -10 0 -27 -7 -37 -15
-27 -21 -46 -19 -46 5 0 13 -7 20 -19 20 -17 0 -19 5 -14 35 7 42 -15 48 -41
13 -15 -21 -16 -22 -14 -3 3 17 -4 21 -48 25 -28 3 -62 2 -75 -1 l-24 -7 23
-1 c19 -1 21 -5 16 -28 -10 -44 -10 -45 9 -48 10 -2 21 3 24 11 3 8 9 14 15
14 11 0 -1 -43 -13 -48 -5 -2 -9 -14 -9 -27 0 -13 -7 -30 -15 -39 -8 -8 -15
-22 -15 -30 0 -25 -20 -19 -21 7 0 12 -3 16 -6 10 -2 -7 -13 -13 -24 -13 -26
0 -24 -27 6 -53 56 -51 95 -78 95 -67 0 6 -7 18 -15 27 -8 8 -12 19 -9 25 4 6
16 -2 29 -18 28 -35 37 -28 42 29 2 23 11 57 19 75 8 18 13 36 10 40 -2 4 11
6 30 4 31 -4 35 -7 30 -28 -7 -26 11 -44 20 -20 9 23 56 -1 48 -26 -3 -10 2
-25 11 -34 10 -10 13 -23 9 -33 -4 -9 -9 -33 -12 -53 -4 -34 -7 -38 -31 -38
-16 0 -50 -7 -77 -15 -27 -8 -57 -12 -66 -9 -10 3 -18 1 -18 -5 0 -17 -107
-61 -149 -61 -22 0 -43 -4 -46 -10 -3 -5 -8 -33 -10 -62 -3 -47 -6 -53 -37
-69 -18 -10 -42 -18 -53 -19 -16 0 -17 -2 -6 -9 10 -6 38 -1 84 16 38 13 71
22 75 19 3 -3 -2 -6 -11 -6 -9 0 -17 -3 -17 -8 0 -14 -45 -35 -110 -53 -67
-18 -49 -25 28 -10 23 5 42 5 42 0 0 -9 -64 -29 -93 -29 -10 0 -15 -4 -12 -10
3 -5 15 -10 26 -10 22 0 26 -15 5 -23 -8 -3 -16 -18 -18 -34 -2 -15 -8 -28
-14 -28 -5 0 -24 -12 -41 -26 -23 -20 -29 -29 -20 -38 8 -8 -2 -11 -38 -12
-37 -2 -42 -3 -20 -7 l30 -5 -25 -7 c-24 -8 -24 -8 -2 -9 12 -1 22 -4 22 -7 0
-12 -29 -34 -42 -31 -7 2 -10 2 -5 0 4 -3 7 -13 7 -22 0 -15 -12 -19 -61 -25
-34 -3 -85 -6 -113 -6 l-51 0 6 63 c3 34 19 91 35 128 l29 66 53 -28 c48 -26
52 -27 52 -10 0 11 18 52 39 93 33 62 37 76 27 91 -11 15 -15 15 -32 2 -10 -8
-23 -14 -29 -15 -5 0 -3 5 5 10 12 8 9 10 -12 10 -22 0 -26 4 -22 18 4 10 3
13 -3 6 -4 -6 -15 -13 -24 -16 -9 -4 -27 -29 -39 -57 l-23 -50 -15 27 c-10 18
-16 65 -18 142 -2 62 -8 118 -13 123 -12 12 -31 0 -25 -17 3 -7 -12 -24 -35
-39 -36 -24 -40 -25 -54 -9 -8 9 -22 32 -31 50 -9 17 -21 32 -26 32 -15 0 -12
17 7 35 9 10 17 24 18 34 5 40 18 71 31 71 8 0 23 5 34 12 27 17 36 3 16 -26
-23 -37 -20 -46 17 -46 31 0 34 -2 32 -30 -1 -16 1 -30 5 -30 11 0 30 24 30
39 0 8 10 26 23 39 l22 24 -32 -6 c-27 -6 -34 -4 -44 16 -7 13 -15 25 -18 28
-3 3 -3 34 0 70 3 42 6 51 7 27 2 -37 3 -38 35 -35 28 3 32 6 31 33 0 17 6 36
13 43 18 19 17 66 -1 59 -10 -4 -16 5 -21 30 -3 19 -4 38 -1 41 3 3 6 -6 6
-19 1 -22 2 -22 11 -6 13 22 -13 57 -41 57 -14 0 -16 -8 -12 -50 3 -36 0 -55
-10 -68 -9 -9 -18 -24 -22 -32 -3 -8 -4 -3 -1 13 4 20 -1 34 -19 52 -25 25
-70 33 -81 15 -12 -19 -25 -10 -25 19 0 47 -32 46 -152 -4 -14 -5 -18 -2 -18
14 0 31 26 39 129 40 57 1 100 6 108 13 8 7 33 14 56 18 42 5 42 5 41 47 0 23
3 40 8 37 17 -11 60 6 54 21 -2 7 0 16 7 19 7 2 -9 5 -34 5 -28 1 -51 7 -59
16 -7 8 -16 13 -20 10 -4 -3 -29 -6 -55 -7 l-47 -1 8 -86 c6 -77 5 -84 -9 -73
-11 10 -21 11 -35 3 -14 -7 -24 -7 -38 3 -13 10 -24 11 -36 5 -12 -7 -31 -3
-63 12 -25 12 -49 19 -52 15 -4 -3 1 -6 10 -6 20 0 33 -20 19 -29 -16 -10
-138 3 -132 14 5 11 15 11 45 0 15 -6 13 -3 -5 10 -14 10 -26 19 -28 21 -2 1
2 11 9 23 7 11 11 23 8 26 -9 8 -116 -31 -181 -66 -10 -5 -25 -9 -34 -9 -13 0
-14 -3 -5 -14 8 -10 6 -20 -11 -42 -18 -22 -19 -27 -5 -21 9 3 17 2 17 -3 0
-6 -6 -10 -12 -11 -10 0 -10 -2 0 -6 22 -9 14 -76 -16 -124 -40 -63 -47 -78
-23 -49 12 14 29 38 38 55 8 16 22 36 30 44 12 11 14 28 9 66 -4 34 -2 57 7
67 16 20 64 31 73 17 3 -6 19 -9 34 -6 47 10 180 -42 180 -69 0 -7 7 -14 15
-18 10 -3 15 -20 15 -48 0 -24 7 -52 15 -62 8 -11 15 -36 15 -56 0 -37 0 -37
-67 -58 l-68 -22 53 6 c29 2 59 7 67 10 9 4 15 0 15 -9 0 -16 -80 -88 -112
-100 -12 -4 -18 -10 -15 -13 8 -8 59 20 81 45 19 21 46 28 46 13 0 -4 -24 -25
-52 -47 -45 -33 -62 -39 -113 -43 -33 -2 -68 -4 -77 -5 -20 -1 -22 -10 -8 -35
5 -9 14 -29 20 -44 8 -23 15 -28 44 -28 l35 0 -6 50 c-6 49 -5 50 22 50 16 0
43 11 61 25 18 14 37 25 42 25 6 0 13 6 15 13 3 6 6 -9 6 -35 1 -54 -14 -102
-29 -93 -6 4 -15 -8 -21 -25 -10 -29 -15 -31 -50 -29 -21 2 -41 0 -45 -4 -4
-4 -22 -7 -40 -7 -32 0 -33 -2 -39 -47 -3 -27 -8 -61 -10 -76 -3 -19 0 -30 10
-34 12 -4 13 -9 4 -19 -18 -21 -1 -36 34 -28 28 6 30 5 18 -10 -7 -9 -28 -16
-45 -16 -19 0 -26 -3 -19 -8 33 -21 113 8 113 40 0 22 17 24 22 3 2 -12 6 -11
16 6 13 20 12 21 -3 15 -15 -5 -16 -2 -10 21 6 27 6 27 -9 8 -19 -24 -21 -9
-3 28 14 32 27 35 27 7 0 -10 7 -23 16 -28 14 -8 15 -16 7 -55 -6 -25 -8 -64
-6 -86 l4 -41 -53 0 c-29 0 -60 -5 -68 -11 -11 -8 3 -9 53 -6 59 4 67 3 67
-13 0 -15 -13 -19 -89 -25 -97 -8 -111 -4 -111 26 0 10 -4 19 -10 19 -5 0 -10
-7 -10 -15 0 -21 -46 -76 -86 -103 -17 -11 -17 -12 6 -6 23 6 24 5 11 -10 -13
-16 -12 -17 12 -11 31 8 32 5 12 -36 -9 -16 -13 -34 -10 -39 4 -6 -10 -10 -31
-10 -34 0 -36 -1 -19 -13 13 -10 16 -21 11 -40 -3 -14 -2 -27 4 -29 10 -3 1
-98 -21 -233 -6 -33 -11 -71 -12 -83 -3 -47 -96 -98 -98 -54 0 9 -2 26 -4 37
-8 43 -20 254 -18 329 1 53 6 82 15 88 9 7 5 8 -14 5 -26 -4 -28 -2 -28 29 0
25 4 34 17 34 14 0 15 2 1 18 -18 20 -32 55 -19 48 14 -9 21 35 10 56 -6 11
-7 32 -4 48 7 33 -1 70 -17 70 -5 0 -8 -6 -5 -12 2 -7 -7 -28 -21 -47 -24 -32
-24 -33 -3 -26 13 4 21 2 21 -5 0 -16 -28 -70 -57 -107 -13 -18 -20 -33 -15
-33 5 0 16 10 25 23 14 21 15 18 10 -38 -4 -45 -11 -64 -27 -77 -11 -10 -15
-18 -8 -18 6 0 12 -4 12 -10 0 -6 -30 -11 -67 -11 -65 -2 -66 -2 -21 -8 26 -4
50 -10 54 -14 4 -4 1 -62 -6 -130 -8 -67 -14 -147 -14 -177 -1 -68 -8 -80 -51
-80 -37 0 -37 1 -51 109 -5 41 -11 55 -25 58 -12 3 -19 14 -18 27 1 17 2 17 6
3 8 -31 19 -10 15 28 -3 27 -8 35 -19 30 -12 -4 -14 -1 -8 17 22 63 -7 288
-37 288 -12 0 -10 24 6 61 l14 34 21 -47 c15 -35 25 -46 40 -45 17 1 18 3 5
21 -8 11 -14 27 -14 36 0 8 -14 30 -30 49 -17 18 -30 41 -30 50 1 12 7 9 25
-11 13 -16 26 -28 28 -28 7 0 -1 199 -8 235 -12 54 -5 189 10 212 8 12 15 33
15 45 0 13 7 34 16 46 8 12 10 22 5 22 -6 0 -11 5 -11 10 0 6 26 11 58 11 l57
2 -80 11 c-73 11 -82 10 -98 -6 -10 -10 -20 -18 -22 -18 -2 0 -16 21 -31 46
-26 44 -27 49 -21 153 6 97 5 109 -12 123 -21 18 -31 14 -31 -14 0 -10 -7 -18
-15 -18 -17 0 -21 55 -5 65 6 4 10 14 9 23 -5 51 13 57 36 12 17 -33 35 -40
35 -13 0 15 2 15 14 3 18 -18 66 -137 66 -162 0 -10 7 -18 15 -18 8 0 27 -14
42 -30 14 -17 28 -28 30 -26 2 2 20 0 40 -4 51 -12 63 -4 63 41 l0 39 60 0
c33 0 63 1 68 3 4 1 8 -8 10 -20 3 -19 -1 -23 -23 -23 -14 0 -28 7 -31 15 -4
9 -19 15 -35 15 -36 0 -39 -25 -8 -64 19 -24 26 -27 63 -21 71 12 111 53 107
113 0 12 4 22 9 22 5 0 7 -7 4 -15 -4 -8 -2 -15 4 -15 14 0 25 34 13 38 -6 2
-11 11 -11 19 0 13 -3 13 -15 3 -13 -11 -15 -8 -15 21 0 50 -39 79 -105 79
-41 0 -56 -5 -72 -22 -28 -30 -32 -78 -10 -111 14 -22 15 -27 3 -27 -22 0 -34
22 -42 77 -8 62 -26 77 -100 87 -43 6 -52 4 -68 -13 l-19 -21 -13 26 c-8 15
-14 29 -14 33 0 3 72 2 159 -3 197 -10 364 1 369 26 3 15 -1 15 -49 1 -43 -13
-90 -14 -263 -9 -265 7 -258 6 -278 36 -10 14 -18 19 -18 13 0 -7 -6 -13 -14
-13 -7 0 -24 -9 -37 -19 -14 -10 -36 -21 -49 -23 -17 -2 -26 -10 -28 -26 -2
-12 -8 -19 -14 -16 -6 4 -14 0 -19 -7 -4 -8 -12 -14 -16 -14 -5 0 -18 -9 -31
-21 -31 -29 -43 -100 -26 -166 8 -29 14 -66 14 -83 0 -17 8 -47 19 -67 17 -34
17 -38 2 -51 -9 -8 -38 -15 -65 -16 -28 -1 -57 -7 -65 -12 -11 -7 7 -8 56 -3
65 5 72 4 82 -14 12 -22 15 -239 5 -266 -10 -26 -44 -20 -44 7 0 24 -21 47
-75 85 -26 17 -40 19 -85 14 -51 -7 -55 -9 -60 -37 -3 -19 -8 -26 -13 -18 -9
15 -37 6 -70 -23 -13 -12 -30 -24 -38 -26 -8 -3 13 -8 46 -12 88 -10 88 -10
100 -91 13 -91 19 -111 38 -127 11 -10 21 -18 22 -18 6 0 -6 94 -12 99 -4 3
-10 18 -11 34 -3 25 2 30 60 56 63 29 90 32 54 5 -24 -17 -16 -18 18 -3 14 7
24 15 22 18 -2 3 7 7 20 7 23 2 24 0 19 -47 -4 -31 -2 -49 5 -49 5 0 10 4 10
9 0 4 16 25 36 46 l36 38 -5 91 c-3 50 -6 92 -6 94 -1 1 -10 -2 -20 -8 -26
-13 -31 -13 -31 5 0 9 9 15 24 15 21 0 24 5 30 61 3 34 6 83 6 109 0 36 4 49
18 54 9 3 22 9 29 12 7 3 10 -2 6 -15 -4 -17 0 -21 18 -22 13 0 39 -6 57 -13
32 -11 34 -14 38 -71 2 -32 7 -67 10 -77 7 -23 -5 -23 -22 0 -12 15 -13 14
-14 -13 -1 -16 -4 -24 -7 -18 -3 9 -10 10 -24 3 -19 -10 -20 -27 -4 -64 16
-37 -56 -206 -94 -221 -10 -4 -12 3 -9 30 2 19 1 32 -2 29 -4 -5 -18 -71 -36
-178 -6 -33 -9 -37 -19 -23 -10 14 -19 15 -56 7 l-44 -9 43 2 c34 2 43 -1 48
-17 4 -13 -1 -25 -17 -37 -20 -15 -21 -19 -6 -19 9 0 17 -4 17 -10 0 -5 0 -13
0 -17 0 -3 -13 -8 -30 -10 -17 -1 -45 -10 -61 -19 -17 -8 -33 -13 -36 -10 -3
3 -19 -2 -36 -11 -22 -11 -32 -12 -35 -4 -6 18 -22 13 -22 -8 0 -17 -7 -19
-47 -18 -61 1 -143 -17 -154 -34 -12 -20 -22 -3 -11 17 7 13 5 25 -11 46 -13
18 -22 46 -23 76 -2 44 -34 143 -55 168 -11 14 -46 330 -43 398 1 35 7 53 20
63 18 13 17 14 -8 8 -23 -6 -28 -3 -32 17 -2 12 -9 46 -14 73 -6 28 -8 63 -5
78 5 28 -12 100 -29 123 -5 7 -24 10 -47 7 -33 -5 -41 -2 -51 16 -8 15 -17 20
-30 16 -15 -5 -21 0 -26 20 -11 46 1 158 23 205 11 25 23 53 27 63 7 23 46 37
69 25 23 -12 55 6 63 37 7 30 24 33 24 5 0 -17 3 -19 20 -8 15 10 32 10 78 0
76 -16 152 -15 175 2 25 19 21 26 -13 26 -20 0 -30 5 -30 15 0 18 52 20 115 5
26 -6 51 -6 71 1 28 9 32 14 31 44 -1 46 -11 48 -165 40 -180 -9 -199 -12
-206 -38 -3 -12 -14 -28 -25 -34 -25 -16 -54 -6 -46 15 3 8 1 18 -4 22 -6 3
-12 21 -13 40 -3 31 0 35 22 35 15 0 28 -8 35 -21 10 -20 11 -19 27 17 9 22
12 39 7 39 -5 0 -12 -6 -15 -14 -3 -8 -12 -12 -19 -10 -10 4 -6 14 16 35 33
32 51 36 68 15 9 -11 9 -15 -1 -19 -7 -3 -3 -6 10 -6 29 -1 28 9 -5 35 -24 19
-26 25 -16 45 14 30 27 89 15 71 -5 -7 -15 -10 -24 -7 -8 3 -21 -2 -29 -11
-13 -16 -12 -16 8 -6 27 15 36 2 24 -30 -12 -31 -37 -52 -55 -45 -10 4 -16 -2
-18 -16 -2 -12 -9 -21 -16 -20 -6 2 -11 -2 -9 -8 1 -6 -4 -14 -12 -17 -8 -3
-11 0 -7 7 4 6 3 11 -2 11 -6 0 -13 -11 -16 -25 -4 -14 -11 -25 -17 -25 -6 0
-8 9 -4 20 4 13 1 22 -9 26 -9 3 -13 11 -9 18 4 6 9 19 10 29 4 26 39 91 57
106 9 8 16 16 16 20 0 3 -51 6 -113 7 -61 0 -123 1 -137 2 -14 0 -83 -1 -155
-2 -76 -2 -135 1 -142 7 -8 6 -18 6 -25 0 -11 -8 -43 -9 -89 -4 -14 1 -2 53
14 63 22 14 57 8 69 -12 16 -24 34 -26 47 -3 10 19 83 22 89 4 5 -14 52 -15
52 -1 0 6 8 10 18 10 10 0 23 5 29 11 8 8 17 5 32 -10 32 -32 86 -33 96 -1 3
11 15 20 25 20 10 0 22 -9 25 -20 9 -28 43 -25 67 5 25 32 42 32 75 -1 23 -23
29 -25 47 -14 12 7 29 18 38 24 13 8 24 5 47 -12 40 -29 75 -28 104 3 l23 26
20 -26 c24 -31 36 -31 65 0 13 13 28 25 32 25 15 0 57 -37 50 -44 -3 -3 2 -6
12 -6 9 0 33 14 52 30 l34 30 22 -24 c25 -28 107 -41 115 -18 5 17 33 15 47
-5 12 -16 14 -16 41 2 16 10 33 24 37 32 9 15 37 18 37 3 0 -6 9 -20 19 -31
19 -20 20 -20 55 -4 20 10 36 21 36 25 0 13 37 -1 55 -20 14 -15 22 -17 42 -9
14 5 34 7 45 3 10 -3 26 0 34 7 12 10 17 8 29 -7 8 -10 15 -14 15 -7 0 6 8 9
19 6 10 -3 22 0 25 6 9 15 83 14 88 -1 3 -8 18 -6 51 7 42 16 51 16 75 4 29
-14 102 -19 102 -6 0 4 7 7 15 7 8 0 15 6 15 13 1 6 9 2 19 -10 20 -24 46 -30
56 -13 3 6 26 10 50 10 24 0 47 -4 50 -10 11 -17 30 -11 65 20 18 17 37 30 41
30 13 0 39 -31 39 -47 0 -11 6 -13 23 -8 47 15 77 17 77 6 0 -6 5 -11 11 -11
7 0 9 10 7 25 -7 35 6 40 26 10 21 -32 41 -32 70 0 31 34 63 33 78 -2 7 -16
13 -29 14 -31 4 -6 58 32 67 45 4 7 21 13 36 13 22 0 30 -6 35 -25 8 -32 23
-32 60 0 39 34 83 34 92 0 8 -33 27 -32 57 6 20 25 30 30 58 27 29 -2 34 -7
37 -30 4 -36 23 -35 60 2 36 35 77 40 85 10 9 -34 38 -37 61 -7 16 20 31 27
58 27 31 0 36 -3 41 -29 6 -27 9 -29 34 -22 18 5 29 15 31 29 3 22 22 30 63
24 18 -3 29 -13 37 -36 14 -37 16 -76 5 -76 -18 -1 -997 -9 -1210 -10 -128 -1
-233 -4 -233 -8 0 -4 9 -20 20 -37 11 -16 22 -49 26 -72 9 -62 61 -70 79 -12
8 25 45 25 45 0 0 -11 -6 -21 -12 -24 -10 -4 -10 -7 0 -18 11 -12 14 -12 22 1
5 8 7 23 4 33 -3 9 -1 17 4 17 5 0 12 -9 15 -20 8 -30 55 -27 67 5 9 23 21 30
44 26 5 -1 25 14 45 33 20 19 49 40 64 45 46 18 128 13 162 -8 35 -21 75 -59
75 -69 0 -4 4 -14 10 -22 7 -12 12 -12 29 4 13 12 27 15 41 11 18 -6 20 -12
14 -43 -3 -20 -8 -44 -10 -52 -5 -19 -64 -56 -64 -41 0 6 6 11 13 11 7 0 18 9
25 20 7 11 10 20 8 20 -12 0 -59 -30 -72 -46 -14 -18 -15 -17 -9 9 4 23 2 27
-15 27 -19 0 -21 -4 -15 -44 l7 -44 -54 -5 c-29 -3 -74 -11 -100 -18 -27 -7
-50 -10 -53 -7 -3 2 -8 18 -11 35 -5 24 -1 35 15 49 12 10 21 26 21 35 0 10 8
19 18 21 18 4 -99 28 -137 28 -16 0 -21 -5 -19 -17 2 -10 10 -18 18 -18 15 0
30 -13 30 -27 0 -5 -12 -8 -27 -8 -79 -1 -96 -30 -69 -116 9 -30 19 -54 21
-54 10 0 61 25 75 37 21 17 64 6 47 -12 -14 -15 -30 -9 -20 8 4 7 -1 6 -11 -2
-11 -10 -14 -17 -7 -24 12 -12 58 8 102 44 18 14 42 22 75 23 l49 1 6 -60 c4
-32 12 -61 18 -63 7 -2 17 -10 24 -17 9 -9 22 -7 61 13 42 21 58 24 107 18 57
-5 106 -22 141 -48 9 -7 21 -9 25 -5 4 5 1 12 -6 16 -7 5 -11 13 -8 18 8 12
67 4 67 -9 0 -6 16 0 36 11 l36 22 -5 -24 c-5 -17 1 -30 22 -49 25 -24 29 -25
44 -11 14 14 17 14 32 0 9 -9 13 -21 10 -27 -3 -5 -1 -10 4 -10 20 0 11 -16
-10 -17 -16 -2 -20 3 -16 18 3 10 1 19 -4 19 -16 0 -21 -27 -9 -49 8 -16 15
-19 28 -12 9 5 24 12 33 14 23 7 22 61 -3 109 -18 33 -19 41 -7 49 8 5 19 9
26 9 28 0 63 24 63 43 0 20 0 20 18 1 22 -23 11 -49 -21 -51 -19 -2 -36 -18
-37 -35 0 -4 7 -5 15 -2 10 4 13 2 10 -8 -3 -8 2 -21 11 -28 14 -12 20 -10 48
23 17 20 38 46 47 58 9 14 20 19 28 15 9 -6 9 -11 -1 -24 -10 -12 -10 -14 0
-8 7 4 12 1 12 -8 0 -12 -5 -14 -24 -6 -19 7 -26 5 -30 -7 -4 -8 -2 -21 4 -28
12 -14 92 3 112 24 11 11 9 13 -10 8 -12 -3 -20 -1 -16 4 3 5 11 9 19 9 8 0
17 5 20 10 11 17 -5 50 -24 50 -14 0 -17 7 -14 33 3 30 3 31 -7 7 -9 -20 -13
-22 -20 -10 -5 8 -10 25 -10 37 0 17 4 21 18 16 15 -6 15 -4 -2 16 -15 17 -26
20 -48 16 -34 -8 -41 19 -7 28 14 4 20 11 16 21 -3 8 -2 18 3 21 6 4 10 12 9
18 0 9 -2 8 -6 -1 -2 -6 -10 -9 -15 -6 -7 5 -8 2 -3 -5 5 -9 1 -12 -11 -11
-31 4 -40 0 -25 -9 7 -5 10 -14 6 -20 -10 -18 -35 7 -28 27 6 15 4 15 -9 4
-14 -11 -89 -22 -160 -23 -9 0 -19 -7 -22 -15 -3 -8 -12 -14 -21 -14 -9 0 -15
-9 -15 -22 0 -29 -16 -55 -27 -45 -4 5 -7 26 -7 48 1 25 -2 37 -8 31 -5 -5 -9
-18 -8 -28 3 -65 6 -82 13 -77 10 6 9 -5 -4 -28 -10 -19 -12 -19 -35 -4 -15
10 -33 13 -46 9 -16 -5 -18 -8 -7 -15 10 -6 11 -9 2 -9 -7 0 -13 -4 -13 -10 0
-5 23 -10 51 -10 33 0 48 -4 43 -11 -3 -6 -15 -8 -26 -6 -11 3 -29 0 -39 -6
-15 -9 -24 -8 -46 5 -46 27 -182 48 -216 33 -15 -6 -10 8 20 66 37 73 39 74
83 80 l45 7 -54 -2 -54 -1 -44 -85 c-24 -47 -48 -86 -53 -88 -6 -2 -10 -12
-10 -23 0 -12 -7 -19 -20 -19 -15 0 -20 7 -20 29 0 16 -3 37 -7 46 -5 14 -2
16 17 10 15 -5 20 -4 16 4 -4 6 -14 11 -22 11 -10 0 -12 5 -5 18 5 9 13 29 19
43 8 20 17 26 43 26 24 0 40 8 61 32 25 27 35 32 63 29 29 -3 32 -2 24 13 -6
12 -4 22 7 33 8 9 14 24 12 33 -4 21 -58 38 -58 18 0 -8 7 -11 20 -8 14 4 20
0 20 -11 0 -9 -4 -16 -10 -16 -5 0 -10 -6 -10 -14 0 -14 -21 -26 -46 -26 -18
0 -18 19 1 41 15 15 14 17 -10 23 -56 14 -16 36 68 36 51 0 104 -22 125 -51
19 -27 50 -24 64 6 7 16 19 25 33 25 13 0 30 -11 39 -25 16 -25 16 -25 -15
-25 -42 0 -33 -9 12 -12 18 -1 37 -6 40 -11 3 -5 13 7 22 25 32 68 103 104
182 93 53 -8 95 -38 96 -68 1 -15 3 -17 6 -6 2 9 28 29 58 44 49 24 61 27 112
20 32 -4 66 -11 76 -16 11 -6 17 -6 17 1 0 5 12 23 26 39 26 29 54 44 106 55
19 4 25 11 22 24 -3 9 5 28 18 42 13 13 23 29 23 35 0 5 21 11 46 13 45 3 45
3 55 -35 l10 -38 36 38 c30 32 41 38 69 35 29 -2 35 -8 39 -32 3 -17 8 -29 13
-28 4 1 11 2 15 2 5 0 15 12 23 27 l14 26 5 -29 c4 -21 11 -29 25 -29 17 0 20
6 17 33 -2 30 0 33 20 30 14 -2 24 -11 26 -23 7 -42 11 -46 31 -35 11 5 21 20
23 32 3 20 9 23 53 23 47 0 50 -1 55 -29 3 -17 10 -29 15 -28 18 3 45 31 45
46 0 9 12 16 33 18 53 5 67 -2 67 -31z m-5242 -59 c20 -27 9 -37 -46 -40 -47
-3 -52 -1 -52 17 0 12 7 21 15 21 8 0 15 7 15 16 0 21 49 11 68 -14z m140 7
c6 -14 32 -11 48 6 10 10 25 12 47 8 35 -6 71 -43 57 -57 -4 -4 -63 -10 -130
-11 -130 -3 -143 2 -120 45 9 17 17 20 43 15 25 -5 29 -4 17 5 -12 9 -10 10
10 4 14 -4 27 -11 28 -15z m4035 -96 c-7 -2 -19 -2 -25 0 -7 3 -2 5 12 5 14 0
19 -2 13 -5z m1214 -63 c4 -13 3 -13 -6 0 -9 12 -13 12 -19 2 -9 -14 -42 -6
-42 10 0 15 63 4 67 -12z m-5179 -40 c8 -18 21 -30 32 -30 11 0 24 12 32 30 7
17 17 30 23 30 26 0 55 -14 55 -25 0 -8 7 -21 16 -30 16 -15 19 -14 48 19 24
28 36 34 54 30 15 -4 22 -14 22 -30 0 -36 41 -32 63 6 12 20 26 30 41 30 25 0
54 -26 42 -37 -4 -4 -10 -3 -14 3 -4 6 -14 3 -25 -8 -18 -19 -17 -19 35 -16
46 3 53 6 58 28 9 40 79 39 80 -1 0 -4 -6 -6 -14 -5 -8 0 -15 -3 -16 -9 0 -5
20 -11 44 -13 l44 -3 -14 -27 c-8 -15 -14 -44 -14 -64 l0 -38 -90 0 c-53 0
-90 -4 -90 -10 0 -5 7 -10 15 -10 8 0 27 -13 42 -30 14 -16 35 -30 45 -30 25
0 23 -22 -3 -39 -18 -10 -23 -10 -30 0 -6 11 -12 10 -27 -4 -15 -14 -21 -14
-34 -4 -20 16 -39 67 -36 97 3 21 -2 26 -24 28 -22 3 -30 -2 -37 -20 -5 -13
-16 -30 -25 -37 -9 -7 -16 -22 -16 -33 0 -26 -30 -36 -42 -14 -8 14 -12 15
-24 5 -8 -7 -35 -11 -59 -11 -46 2 -51 -4 -46 -45 1 -7 -4 -13 -11 -13 -10 0
-13 20 -12 73 0 39 2 79 5 87 5 17 -30 25 -68 15 -23 -5 -24 -9 -18 -43 4 -20
11 -38 16 -40 5 -2 9 -10 9 -18 0 -9 -4 -13 -8 -10 -4 2 -23 -3 -42 -12 -32
-15 -34 -15 -48 6 -15 23 -46 29 -57 12 -3 -5 -24 -10 -45 -10 l-39 0 -3 51
c-3 59 -20 76 -63 65 -27 -7 -27 -8 -20 -61 l6 -55 -40 0 c-23 0 -41 4 -41 9
0 5 -9 13 -21 16 -16 5 -19 12 -15 28 20 71 21 67 -17 67 -54 0 -69 -46 -30
-91 13 -15 10 -17 -22 -21 -42 -5 -46 -1 -48 53 -2 56 -32 72 -100 55 -41 -11
-46 -14 -33 -25 8 -7 20 -10 26 -6 5 3 10 -2 10 -13 0 -11 7 -25 15 -32 21
-18 12 -23 -40 -26 -54 -2 -79 20 -69 60 3 14 11 26 16 26 6 0 5 7 -3 16 -9
11 -22 14 -46 9 -18 -3 -33 -4 -33 -2 0 6 42 101 46 106 3 3 29 6 59 8 l56 3
-16 -31 c-13 -24 -14 -34 -4 -45 17 -21 29 -7 29 37 l0 39 50 -1 c39 -2 54 2
65 17 15 19 15 19 8 0 -6 -17 -2 -19 35 -14 28 4 45 2 52 -8 9 -10 16 -11 31
-1 10 6 19 18 19 27 0 9 6 6 16 -9 13 -17 14 -28 6 -44 -19 -41 -21 -56 -8
-66 18 -15 50 32 41 60 -9 28 10 47 41 41 17 -3 30 1 39 14 13 18 14 18 15 2
0 -12 8 -18 25 -18 17 0 25 6 26 18 1 16 2 16 6 0 3 -12 14 -18 32 -18 24 0
30 5 35 30 4 25 10 30 33 30 22 0 31 -7 41 -30z m696 21 c3 -4 -5 -13 -19 -19
-21 -10 -23 -9 -22 9 1 19 31 27 41 10z m2130 -73 c-9 -32 -24 -48 -43 -48
-14 1 -13 3 2 15 13 9 17 20 12 34 -5 17 -2 21 15 21 18 0 20 -4 14 -22z
m2186 -3 c-7 -8 -17 -15 -23 -15 -5 0 -2 9 8 20 21 23 35 19 15 -5z m-5825
-40 c8 -31 10 -58 4 -72 -7 -20 -5 -23 14 -23 16 0 26 -9 35 -32 6 -17 10 -34
7 -36 -7 -7 -26 9 -20 18 7 11 -22 33 -34 26 -5 -3 -7 -15 -4 -25 3 -10 0 -22
-6 -25 -6 -4 -11 -6 -11 -4 -1 2 -3 28 -6 58 -6 63 -23 82 -65 73 -33 -6 -37
7 -17 54 16 36 25 41 61 40 27 -2 31 -7 42 -52z m5915 34 c0 -5 -10 -9 -21 -9
-12 0 -27 -7 -34 -16 -6 -9 -20 -14 -31 -12 -16 4 -15 6 9 16 15 6 27 16 27
21 0 10 30 20 43 14 4 -2 7 -8 7 -14z m-1379 -46 c-9 -16 -10 -14 -11 12 0 21
3 26 11 18 8 -8 8 -16 0 -30z m1350 0 c-6 -10 -35 -44 -66 -77 -52 -56 -55
-57 -55 -31 0 18 -6 28 -20 32 -24 6 -24 5 -6 48 12 28 21 35 42 35 22 0 25
-2 14 -15 -7 -8 -10 -21 -7 -29 9 -22 51 -7 69 25 10 16 22 29 28 29 7 0 8 -6
1 -17z m-1309 -5 c5 -14 -20 -44 -28 -35 -8 8 6 47 16 47 5 0 10 -6 12 -12z
m-212 -2 c0 -3 -4 -8 -10 -11 -5 -3 -10 -1 -10 4 0 6 5 11 10 11 6 0 10 -2 10
-4z m-815 -26 c-3 -5 -19 -10 -36 -10 -16 0 -29 5 -29 10 0 6 16 10 36 10 21
0 33 -4 29 -10z m835 -6 c0 -8 -4 -12 -10 -9 -5 3 -10 10 -10 16 0 5 5 9 10 9
6 0 10 -7 10 -16z m90 6 c0 -5 -4 -10 -10 -10 -5 0 -10 5 -10 10 0 6 5 10 10
10 6 0 10 -4 10 -10z m150 -25 c0 -28 -4 -36 -24 -41 -27 -6 -70 12 -61 27 4
5 15 9 26 9 10 0 24 9 31 20 19 29 28 24 28 -15z m-200 5 c-8 -5 -17 -7 -19
-4 -3 3 1 9 9 14 8 5 17 7 19 4 3 -3 -1 -9 -9 -14z m-830 0 c0 -5 -4 -10 -10
-10 -5 0 -10 5 -10 10 0 6 5 10 10 10 6 0 10 -4 10 -10z m770 -8 c0 -11 -22
-32 -32 -32 -5 0 -4 9 2 20 11 20 30 28 30 12z m-2810 -16 c0 -22 -16 -28 -29
-12 -9 11 -9 15 1 19 22 9 28 8 28 -7z m2000 6 c0 -14 -23 -32 -41 -32 -16 0
-43 23 -35 31 8 8 76 9 76 1z m940 -2 c-20 -13 -33 -13 -25 0 3 6 14 10 23 10
15 0 15 -2 2 -10z m-66 -15 c3 -8 1 -15 -5 -15 -6 0 -8 -7 -5 -16 6 -14 4 -15
-9 -4 -13 11 -13 15 -3 21 11 7 11 9 0 9 -7 0 -10 5 -7 10 9 15 22 12 29 -5z
m-2934 -9 c0 -8 -7 -16 -15 -20 -17 -6 -18 -4 -9 18 8 20 24 21 24 2z m190 3
c0 -6 7 -9 15 -6 8 4 17 2 20 -3 4 -6 -9 -10 -29 -10 -27 0 -34 3 -30 15 7 17
24 20 24 4z m2667 -41 c-3 -7 -5 -2 -5 12 0 14 2 19 5 13 2 -7 2 -19 0 -25z
m1393 22 c0 -5 -9 -10 -20 -10 -11 0 -20 5 -20 10 0 6 9 10 20 10 11 0 20 -4
20 -10z m-1420 -20 c0 -5 -7 -10 -15 -10 -8 0 -15 5 -15 10 0 6 7 10 15 10 8
0 15 -4 15 -10z m63 -5 c4 -8 2 -17 -3 -20 -6 -4 -10 3 -10 14 0 25 6 27 13 6z
m1237 -20 c0 -23 -2 -24 -20 -13 -11 7 -20 18 -20 25 0 7 9 13 20 13 15 0 20
-7 20 -25z m-955 5 c3 -5 1 -10 -4 -10 -6 0 -11 5 -11 10 0 6 2 10 4 10 3 0 8
-4 11 -10z m-3275 -40 c-20 -13 -33 -13 -25 0 3 6 14 10 23 10 15 0 15 -2 2
-10z m4730 -27 c-1 -4 7 -10 17 -14 12 -5 6 -8 -19 -8 -33 -1 -38 2 -38 22 0
13 3 26 6 30 7 7 35 -18 34 -30z m179 -9 c-6 -8 -24 -14 -40 -14 -23 0 -27 3
-22 18 13 37 23 42 49 25 19 -12 22 -19 13 -29z m-6179 22 c0 -3 -4 -8 -10
-11 -5 -3 -10 -1 -10 4 0 6 5 11 10 11 6 0 10 -2 10 -4z m75 -6 c3 -5 1 -10
-4 -10 -6 0 -11 5 -11 10 0 6 2 10 4 10 3 0 8 -4 11 -10z m170 0 c3 -5 -1 -10
-9 -10 -9 0 -16 5 -16 10 0 6 4 10 9 10 6 0 13 -4 16 -10z m70 0 c3 -5 1 -10
-4 -10 -6 0 -11 5 -11 10 0 6 2 10 4 10 3 0 8 -4 11 -10z m85 0 c0 -5 -10 -10
-22 -10 -19 0 -20 2 -8 10 19 13 30 13 30 0z m240 0 c0 -5 -7 -10 -16 -10 -8
0 -12 5 -9 10 3 6 10 10 16 10 5 0 9 -4 9 -10z m230 -10 c0 -18 -3 -19 -21 -9
-17 9 -19 13 -8 20 22 14 29 11 29 -11z m325 9 c4 -6 14 -8 24 -4 9 3 0 -8
-19 -24 -36 -31 -61 -42 -41 -17 9 10 8 16 -4 26 -13 11 -13 15 -3 21 18 12
36 11 43 -2z m5051 -25 c-3 -8 -10 -12 -16 -9 -7 4 -6 14 2 28 12 24 24 8 14
-19z m-5696 16 c0 -5 -6 -10 -14 -10 -8 0 -18 5 -21 10 -3 6 3 10 14 10 12 0
21 -4 21 -10z m165 0 c-3 -5 -12 -7 -20 -3 -21 7 -19 13 6 13 11 0 18 -4 14
-10z m-1290 -91 c10 -15 -1 -22 -24 -14 -12 3 -19 11 -16 16 8 12 32 11 40 -2z
m5925 -19 c0 -5 -2 -10 -4 -10 -3 0 -8 5 -11 10 -3 6 -1 10 4 10 6 0 11 -4 11
-10z m-80 -59 c0 -6 -4 -11 -10 -11 -5 0 -10 -10 -11 -22 l0 -23 -9 23 c-12
28 -17 28 -46 -4 -28 -29 -31 -59 -8 -68 20 -8 34 1 34 20 0 8 5 14 11 14 20
0 -2 -45 -42 -83 -24 -24 -39 -48 -39 -63 0 -27 -32 -64 -55 -64 -8 0 -15 -4
-15 -10 0 -9 76 -15 143 -10 15 1 27 -3 27 -8 0 -8 -14 -57 -27 -92 -3 -8 -7
-23 -8 -32 -3 -30 -14 -33 -52 -13 -24 14 -31 21 -20 23 9 2 25 -2 36 -8 17
-8 19 -8 15 4 -8 20 -69 29 -110 16 -48 -16 -54 -11 -38 35 8 22 17 76 20 120
3 44 10 81 14 83 5 2 12 25 16 52 5 36 11 50 25 53 11 3 19 0 20 -6 0 -7 3 -5
6 3 3 8 12 23 21 33 26 29 5 31 -32 2 -41 -31 -46 -26 -14 13 19 23 31 27 85
30 40 2 63 -1 63 -7z m-5920 -47 c0 -8 -4 -14 -10 -14 -5 0 -10 9 -10 21 0 11
5 17 10 14 6 -3 10 -13 10 -21z m3080 -38 c0 -19 -4 -23 -20 -19 -11 3 -20 14
-20 24 0 12 7 19 20 19 14 0 20 -7 20 -24z m221 14 c5 0 9 -11 9 -25 0 -21 -5
-25 -30 -25 -25 0 -30 4 -30 23 0 29 9 39 28 32 7 -3 18 -5 23 -5z m-2627 -6
c46 -7 46 -7 20 -20 -14 -8 -33 -14 -40 -14 -11 0 -12 -4 -4 -19 8 -15 6 -29
-6 -55 -15 -29 -15 -40 -4 -78 14 -51 15 -71 3 -118 -8 -31 -10 -32 -15 -13
-3 13 -3 25 2 28 9 6 1 51 -16 83 -9 17 -10 31 -3 43 23 44 -4 65 -45 34 -11
-8 -28 -15 -38 -15 -20 0 -22 13 -12 98 l7 52 52 0 c29 0 73 -3 99 -6z m516
-9 c14 -1 96 -3 183 -3 l158 -2 -15 -27 c-8 -16 -17 -35 -19 -44 -4 -13 -25
-15 -143 -12 -76 2 -143 8 -150 14 -8 7 -14 6 -17 -3 -4 -9 -6 -8 -6 3 -1 19
-38 55 -48 46 -3 -4 16 -33 43 -64 54 -63 74 -101 74 -138 0 -35 -26 -55 -70
-55 -43 0 -57 -12 -37 -32 7 -7 16 -21 20 -30 3 -10 13 -18 22 -18 10 0 15
-10 15 -30 0 -33 -15 -38 -46 -15 -29 22 -39 18 -53 -20 -10 -28 -17 -35 -40
-35 -39 0 -51 17 -51 74 1 59 17 91 45 91 31 0 24 30 -7 33 -42 5 -35 62 7 62
68 0 76 42 13 69 -36 15 -45 16 -56 4 -7 -7 -22 -13 -32 -13 -10 0 -22 -9 -25
-21 -8 -25 -27 -12 -50 34 -29 59 -12 79 25 27 27 -38 39 -31 38 21 0 22 2 43
5 46 4 3 2 13 -3 23 -5 10 -6 21 -2 25 6 6 76 3 222 -10z m4743 2 c2 -6 -2
-18 -9 -25 -12 -11 -14 -8 -14 13 0 26 14 34 23 12z m349 -22 l33 7 -19 -21
c-23 -25 -46 -27 -89 -4 l-32 17 25 6 c14 4 30 3 37 -2 7 -6 27 -7 45 -3z
m-5452 -10 c0 -8 9 -19 20 -25 11 -6 18 -15 15 -20 -8 -12 -75 -10 -75 3 0 6
-21 7 -54 3 -35 -4 -57 -2 -61 5 -4 6 2 13 14 16 12 3 21 9 21 14 0 4 21 10
48 12 26 2 53 4 60 5 6 1 12 -5 12 -13z m5510 -13 c0 -11 -22 -32 -32 -32 -5
0 -4 9 2 20 11 20 30 28 30 12z m-4361 -23 c30 -18 33 -22 18 -31 -12 -6 -17
-22 -17 -59 0 -32 -4 -48 -10 -44 -6 4 -10 16 -9 28 4 39 -1 58 -11 52 -5 -3
-10 2 -11 12 0 10 -2 28 -3 41 -3 27 0 27 43 1z m3915 -28 c-4 -25 -12 -41
-20 -41 -8 0 -14 -7 -14 -15 0 -8 -5 -15 -11 -15 -13 0 -2 37 22 72 11 14 19
32 19 39 0 7 2 10 5 7 3 -3 3 -24 -1 -47z m-5494 13 c6 -15 19 -39 30 -54 28
-39 25 -50 -14 -50 -38 0 -46 14 -46 88 0 47 15 55 30 16z m5245 16 c-3 -5
-11 -10 -16 -10 -6 0 -7 5 -4 10 3 6 11 10 16 10 6 0 7 -4 4 -10z m1126 -26
c26 -23 24 -49 -3 -53 -61 -7 -107 -4 -122 8 -17 14 -22 52 -8 65 12 14 113
-2 133 -20z m-2795 -46 c-21 -14 -26 -8 -26 30 l0 37 19 -30 c12 -21 15 -32 7
-37z m819 21 c-4 -23 -11 -53 -17 -68 -5 -14 -14 -36 -19 -49 -5 -13 -13 -20
-19 -17 -6 4 -6 12 0 23 18 34 39 88 45 120 9 46 17 40 10 -9z m1565 31 c0 -5
-4 -10 -10 -10 -5 0 -10 5 -10 10 0 6 5 10 10 10 6 0 10 -4 10 -10z m-3250 -4
c0 -2 3 -12 7 -21 5 -15 3 -16 -15 -6 -25 13 -29 31 -7 31 8 0 15 -2 15 -4z
m1730 -3 c0 -5 -5 -15 -10 -23 -8 -12 -10 -11 -10 8 0 12 5 22 10 22 6 0 10
-3 10 -7z m1076 -71 c-12 -12 -18 8 -10 35 l8 28 4 -28 c2 -16 1 -31 -2 -35z
m284 33 c0 -12 -101 -19 -132 -9 -43 13 -13 25 57 22 48 -1 75 -6 75 -13z
m-4540 -15 c0 -11 -4 -20 -9 -20 -5 0 -7 9 -4 20 3 11 7 20 9 20 2 0 4 -9 4
-20z m3200 5 c-7 -8 -16 -15 -21 -15 -5 0 -6 7 -3 15 4 8 13 15 21 15 13 0 13
-3 3 -15z m300 -11 c0 -19 -30 -58 -48 -61 -18 -4 -15 37 5 59 20 22 43 23 43
2z m-4953 -56 c-3 -8 -6 -5 -6 6 -1 11 2 17 5 13 3 -3 4 -12 1 -19z m5282 -40
c-7 -13 -14 -18 -16 -11 -3 7 1 22 8 35 7 13 14 18 16 11 3 -7 -1 -22 -8 -35z
m721 32 c0 -5 -2 -10 -4 -10 -3 0 -8 5 -11 10 -3 6 -1 10 4 10 6 0 11 -4 11
-10z m105 -20 c11 -12 26 -18 35 -15 10 3 23 -1 30 -10 8 -10 9 -15 1 -15 -6
0 -11 -5 -11 -11 0 -8 13 -9 41 -5 26 4 38 3 34 -4 -3 -5 0 -10 8 -10 19 0 67
38 67 54 0 6 13 13 30 14 32 2 31 3 8 -60 -6 -16 -15 -28 -20 -28 -5 0 -6 -9
-3 -20 7 -23 6 -23 -32 -10 -26 10 -27 9 -8 -5 56 -43 57 -45 51 -90 -5 -29
-3 -51 6 -65 11 -17 11 -22 0 -29 -8 -4 -13 -11 -13 -15 5 -34 -2 -67 -19 -86
-11 -13 -20 -18 -20 -12 0 7 -4 12 -9 12 -13 0 -21 -39 -9 -46 5 -3 8 -69 7
-159 -1 -84 1 -157 5 -163 3 -6 1 -14 -5 -17 -5 -4 -8 -13 -5 -21 3 -8 -6 -21
-21 -31 -21 -14 -45 -17 -125 -15 -67 2 -104 -1 -114 -9 -29 -24 -38 7 -45
163 -13 253 -21 342 -34 363 -20 33 -27 75 -13 75 31 1 39 16 23 46 -22 42
-19 51 25 101 27 31 40 55 40 75 0 21 8 33 33 48 40 25 40 25 62 0z m-5720 0
c3 -5 1 -10 -4 -10 -6 0 -11 5 -11 10 0 6 2 10 4 10 3 0 8 -4 11 -10z m4815
-56 c0 -32 -4 -44 -14 -44 -23 0 -26 13 -14 58 13 52 28 45 28 -14z m-5110 36
c14 -9 20 -73 8 -86 -4 -3 -23 -9 -43 -14 -35 -8 -37 -7 -51 26 -14 34 -18 67
-9 76 9 9 80 8 95 -2z m235 -38 c-1 -15 -3 -47 -4 -72 -2 -42 -3 -44 -16 -26
-8 11 -15 28 -15 38 0 10 -6 18 -14 18 -20 0 -37 25 -30 44 4 9 18 23 33 30
33 18 51 5 46 -32z m4125 33 c0 -12 -19 -12 -23 0 -4 9 -1 12 9 8 7 -3 14 -7
14 -8z m1530 -32 c0 -20 -3 -24 -11 -16 -7 7 -9 19 -6 27 10 24 17 19 17 -11z
m-5776 -49 c13 -51 -17 -84 -64 -69 -26 8 -25 29 1 66 26 36 55 38 63 3z
m1217 -20 c10 -12 10 -19 1 -32 -7 -10 -16 -27 -22 -39 -13 -31 -47 -48 -66
-32 -15 12 -19 47 -6 64 9 13 65 54 73 55 4 0 12 -7 20 -16z m114 -4 c3 -5 -1
-10 -10 -10 -9 0 -13 5 -10 10 3 6 8 10 10 10 2 0 7 -4 10 -10z m2131 -24 c9
-20 8 -27 -8 -40 -10 -9 -23 -16 -28 -16 -6 0 -10 -4 -10 -10 0 -5 6 -10 14
-10 8 0 17 -7 20 -16 5 -12 0 -15 -22 -12 -29 3 -30 12 -16 96 6 39 34 43 50
8z m3114 14 c0 -5 -9 -14 -20 -20 -11 -6 -20 -17 -20 -25 0 -8 -4 -15 -10 -15
-16 0 -5 39 16 55 22 17 34 19 34 5z m-1122 -82 c23 -38 37 -123 25 -155 -8
-21 -9 -21 -40 -6 -33 16 -96 12 -108 -7 -3 -5 6 -5 22 -1 47 13 68 0 68 -45
1 -21 4 -82 9 -134 4 -52 9 -116 11 -142 3 -45 52 -156 95 -218 9 -14 22 -50
29 -80 11 -55 16 -77 46 -239 8 -46 18 -88 21 -92 9 -15 -6 -48 -27 -59 -14
-8 -31 -5 -69 11 -47 20 -50 24 -50 58 0 40 -24 110 -76 217 -19 39 -40 89
-47 110 -16 45 -37 57 -37 21 0 -14 -6 -37 -14 -51 -12 -23 -11 -32 8 -72 l21
-46 12 29 c11 24 12 25 13 6 0 -12 -7 -55 -16 -95 -9 -40 -20 -95 -23 -122 -6
-46 -9 -50 -43 -62 -34 -11 -40 -11 -65 9 -40 31 -42 36 -25 70 12 24 16 68
16 194 1 176 3 183 55 183 17 0 22 4 17 16 -3 9 -6 20 -6 24 0 5 -26 10 -57
12 l-58 3 -10 40 c-5 22 -14 46 -19 54 -5 8 -11 35 -13 60 -7 93 -24 195 -34
207 -7 8 -7 14 1 19 6 4 8 16 5 26 -4 11 -3 25 2 32 15 19 37 96 30 103 -8 8
17 56 38 74 15 12 16 11 9 -15 -6 -26 -5 -28 17 -22 13 4 31 7 39 8 8 0 4 4
-10 8 -31 9 -35 29 -10 59 19 23 85 38 182 41 42 1 48 -2 66 -31z m789 6 c7
-18 -14 -35 -34 -27 -16 6 -17 30 0 36 21 9 27 7 34 -9z m-703 -50 c20 -8 21
-28 2 -43 -17 -14 -39 9 -30 33 7 18 7 18 28 10z m1143 -19 c-4 -8 -11 -15
-17 -15 -7 0 -7 6 0 21 13 23 26 19 17 -6z m-3385 -66 c-2 -16 -9 -29 -14 -29
-6 0 -8 7 -5 15 4 8 2 17 -3 20 -18 11 -11 33 8 28 14 -3 17 -12 14 -34z
m-1642 21 c0 -14 -38 -32 -63 -28 -12 2 -23 11 -25 21 -3 14 4 17 42 17 25 0
46 -4 46 -10z m1560 -121 c-16 -28 -22 -19 -14 21 6 25 9 29 16 16 5 -10 5
-24 -2 -37z m595 8 c-8 -20 -15 -51 -16 -69 0 -32 -1 -32 -10 -8 -8 19 -5 35
12 72 26 55 37 59 14 5z m-2125 21 c0 -7 -7 -22 -15 -32 -14 -19 -15 -18 -15
12 0 22 5 32 15 32 8 0 15 -6 15 -12z m787 -10 c-3 -8 -6 -5 -6 6 -1 11 2 17
5 13 3 -3 4 -12 1 -19z m-397 -13 c-14 -8 -29 -14 -35 -14 -5 0 1 6 15 14 14
8 30 14 35 14 6 0 -1 -6 -15 -14z m70 10 c0 -5 -84 -55 -94 -55 -22 0 6 25 44
41 53 21 50 20 50 14z m2530 -14 c12 -24 13 -91 1 -91 -5 0 -12 17 -15 38 -4
20 -9 45 -12 55 -7 23 13 22 26 -2z m-3050 -11 c0 -5 -4 -10 -10 -10 -5 0 -10
5 -10 10 0 6 5 10 10 10 6 0 10 -4 10 -10z m2137 -32 c-3 -7 -5 -2 -5 12 0 14
2 19 5 13 2 -7 2 -19 0 -25z m65 -25 l-5 -38 -9 28 c-10 29 -4 62 10 53 4 -3
6 -22 4 -43z m-1386 8 c21 4 34 -2 34 -16 0 -16 -12 -18 -46 -9 -16 4 -20 11
-16 26 3 12 7 16 12 8 4 -6 11 -10 16 -9z m1291 -3 c-3 -8 -6 -5 -6 6 -1 11 2
17 5 13 3 -3 4 -12 1 -19z m-1167 -8 c0 -5 -7 -10 -16 -10 -8 0 -12 5 -9 10 3
6 10 10 16 10 5 0 9 -4 9 -10z m-217 -40 c3 -11 1 -23 -4 -26 -5 -3 -9 6 -9
20 0 31 6 34 13 6z m-1006 -32 c-3 -8 -6 -5 -6 6 -1 11 2 17 5 13 3 -3 4 -12
1 -19z m3453 -14 c0 -8 -4 -12 -10 -9 -5 3 -10 10 -10 16 0 5 5 9 10 9 6 0 10
-7 10 -16z m-2362 -20 c12 -3 22 -2 22 4 0 6 9 8 20 5 57 -15 -9 -49 -71 -36
-25 5 -31 2 -36 -16 -6 -25 -18 -27 -27 -6 -3 9 0 15 10 15 9 0 12 5 8 12 -5
7 -3 8 6 3 9 -6 10 -2 5 15 -6 20 -5 22 16 16 13 -3 34 -9 47 -12z m412 6 c0
-5 -5 -10 -11 -10 -5 0 -7 5 -4 10 3 6 8 10 11 10 2 0 4 -4 4 -10z m-521 -83
c12 -15 5 -27 -16 -27 -7 0 -13 9 -13 20 0 23 13 26 29 7z m2546 -87 c3 -5 16
-10 28 -11 21 0 21 -1 2 -9 -11 -5 -31 -9 -44 -9 -19 -1 -21 2 -12 13 9 11 9
15 -1 19 -9 4 -7 6 4 6 9 1 20 -3 23 -9z m-1745 -25 c-16 -19 -30 -19 -30 0 0
9 6 12 15 9 8 -4 15 -1 15 7 0 7 3 9 6 6 4 -4 1 -13 -6 -22z m247 -17 c-3 -7
-5 -2 -5 12 0 14 2 19 5 13 2 -7 2 -19 0 -25z m569 -13 c24 -25 44 -50 44 -55
0 -6 5 -10 11 -10 8 0 10 17 6 53 l-6 52 15 -48 c11 -35 12 -52 4 -61 -7 -10
-6 -23 5 -49 8 -20 15 -45 15 -56 0 -29 51 -161 62 -161 5 0 6 31 3 73 -16
194 -16 185 11 206 29 22 127 47 132 32 2 -5 12 -6 24 -3 20 5 20 6 3 19 -17
12 -15 13 18 13 20 0 37 -4 37 -10 0 -5 -4 -10 -9 -10 -6 0 -8 -9 -6 -19 4
-24 -29 -114 -38 -105 -4 4 -7 23 -7 41 0 20 -4 32 -10 28 -12 -8 -13 -68 -1
-81 5 -5 5 -29 0 -59 -21 -118 -30 -194 -28 -259 2 -60 0 -71 -17 -80 -10 -6
-23 -17 -27 -23 -11 -17 -38 -16 -65 3 -25 17 -29 34 -7 34 8 0 15 -8 15 -17
0 -13 3 -14 12 -5 20 20 -8 43 -39 31 -22 -8 -24 -8 -14 5 7 9 21 18 31 21 30
10 52 52 40 75 -14 26 -40 26 -47 0 -3 -12 -17 -22 -38 -26 -52 -9 -73 2 -85
46 -12 44 -72 139 -135 215 -49 58 -75 105 -75 135 0 27 75 100 101 100 11 0
40 -20 65 -45z m-1553 -18 c-7 -11 -23 12 -23 32 0 11 4 9 14 -4 8 -11 12 -24
9 -28z m147 -54 c0 -40 -4 -73 -9 -73 -19 0 -27 78 -15 140 11 51 24 14 24
-67z m-260 77 c0 -5 -2 -10 -4 -10 -3 0 -8 5 -11 10 -3 6 -1 10 4 10 6 0 11
-4 11 -10z m2385 -20 c3 -5 1 -10 -4 -10 -6 0 -11 5 -11 10 0 6 2 10 4 10 3 0
8 -4 11 -10z m-2700 -14 c-12 -8 -16 -20 -12 -35 3 -13 -1 -25 -11 -32 -13 -8
-7 -9 23 -4 82 14 80 15 83 -40 4 -67 -5 -115 -22 -109 -26 10 -38 -22 -30
-83 7 -57 7 -58 19 -29 l12 29 14 -24 c7 -13 12 -30 10 -38 -1 -8 3 -18 11
-22 8 -6 0 -6 -19 -3 -32 6 -40 -3 -34 -39 1 -4 -3 -17 -9 -27 -8 -15 -21 -20
-55 -20 -39 0 -45 3 -51 25 -3 14 -11 25 -18 26 -21 2 -91 5 -163 7 l-73 2 0
54 c0 50 2 56 36 81 35 27 37 27 50 10 11 -15 17 -16 26 -7 9 9 9 12 -1 12 -7
0 -9 5 -6 10 12 19 35 10 51 -22 9 -18 27 -41 40 -51 13 -10 24 -25 24 -33 0
-8 5 -14 10 -14 14 0 13 32 -5 123 -22 115 -20 134 13 151 23 12 28 22 30 56
2 27 -1 39 -8 35 -5 -3 -10 -4 -10 0 0 9 42 24 69 24 23 1 24 0 6 -13z m55
-12 c12 -32 12 -34 0 -34 -5 0 -10 9 -10 20 0 11 -4 20 -10 20 -5 0 -10 5 -10
10 0 20 21 9 30 -16z m1177 4 c-3 -8 -6 -5 -6 6 -1 11 2 17 5 13 3 -3 4 -12 1
-19z m-905 -9 c24 -13 31 -63 26 -176 l-4 -95 50 6 c27 3 53 11 57 17 12 20
36 2 37 -28 2 -54 -16 -73 -69 -73 -26 0 -51 5 -54 10 -3 6 -26 10 -50 10 -24
0 -45 5 -47 11 -3 9 -10 9 -27 0 -17 -9 -26 -10 -34 -2 -8 8 -6 11 6 11 9 0
17 4 17 9 0 17 -20 23 -35 11 -32 -26 -45 18 -24 78 8 24 7 42 -4 79 -25 80
-18 110 35 138 24 13 89 10 120 -6z m128 -5 c0 -8 -4 -12 -10 -9 -5 3 -10 13
-10 21 0 8 5 12 10 9 6 -3 10 -13 10 -21z m700 -23 c0 -6 -9 -9 -20 -8 -11 1
-20 5 -20 9 0 4 9 8 20 8 11 0 20 -4 20 -9z m500 0 c0 -9 -52 -22 -60 -15 -7
7 23 24 43 24 9 0 17 -4 17 -9z m2494 -16 c4 -14 13 -104 21 -201 l14 -176
-23 -25 c-21 -22 -26 -24 -47 -13 -35 19 -41 34 -44 121 -2 53 -13 109 -31
166 -16 47 -29 81 -31 77 -1 -5 -23 -81 -49 -169 -26 -88 -50 -176 -53 -195
l-7 -35 -27 28 c-15 15 -37 27 -49 27 -15 0 -18 4 -13 18 19 43 35 121 35 167
0 27 3 87 7 133 l6 83 86 -6 c63 -4 98 -2 131 9 62 20 67 20 74 -9z m-1059
-100 c0 -67 -2 -80 -16 -77 -11 1 -19 -11 -27 -40 -6 -24 -19 -74 -29 -113
-26 -97 -38 -116 -66 -106 -28 10 -46 46 -40 80 2 14 8 98 13 186 10 183 8
165 18 165 5 0 8 -9 8 -20 -1 -10 4 -19 9 -20 6 0 10 6 10 13 0 8 15 11 48 9
43 -3 47 -1 47 20 1 22 1 22 12 3 7 -11 12 -56 13 -100z m-1305 93 c0 -5 -16
-8 -36 -8 -20 0 -33 4 -29 10 7 11 65 9 65 -2z m-354 -24 c8 3 14 2 14 -3 0
-5 -12 -11 -26 -14 -19 -3 -24 -1 -20 10 3 8 7 20 7 26 1 7 3 4 6 -6 3 -11 11
-16 19 -13z m134 6 c0 -5 -10 -11 -22 -11 -13 -1 -39 -3 -58 -4 l-35 -4 35 14
c42 16 80 19 80 5z m103 3 c-7 -2 -19 -2 -25 0 -7 3 -2 5 12 5 14 0 19 -2 13
-5z m-493 -30 c10 -4 5 -8 -15 -13 -32 -6 -65 -2 -65 9 0 8 61 11 80 4z m-599
-40 c-12 -20 -14 -14 -5 12 4 9 9 14 11 11 3 -2 0 -13 -6 -23z m809 -85 c0
-47 -3 -58 -17 -58 -15 0 -15 -1 0 -18 22 -24 21 -39 -3 -52 -25 -13 -27 5 -2
19 15 10 15 11 -5 17 -13 3 -23 11 -23 18 0 15 -48 36 -67 29 -14 -5 -15 0
-10 33 4 21 7 47 7 56 0 14 9 17 60 15 l60 -2 0 -57z m-1235 43 c3 -5 1 -12
-5 -16 -5 -3 -10 1 -10 9 0 18 6 21 15 7z m3055 -31 c0 -5 -5 -33 -12 -62 -6
-29 -11 -58 -10 -65 2 -6 -3 -15 -9 -19 -8 -5 -9 5 -5 35 3 22 9 59 12 81 3
22 10 40 15 40 5 0 9 -4 9 -10z m-4094 -46 c15 -10 21 -20 15 -22 -6 -2 -18 2
-26 8 -8 7 -32 19 -52 27 l-38 14 37 -5 c20 -2 49 -12 64 -22z m324 5 c0 -6 8
-8 19 -4 16 5 18 1 13 -22 -3 -16 -11 -32 -19 -38 -11 -8 -11 -15 1 -37 8 -15
12 -36 9 -48 -5 -17 -13 -20 -67 -20 -35 0 -65 2 -68 6 -3 3 0 25 7 49 8 24
11 45 9 48 -3 3 -2 21 1 41 7 35 9 36 51 36 25 0 44 -5 44 -11z m3692 -49 c6
-30 11 -61 9 -68 -1 -7 5 -15 14 -18 21 -9 19 -41 -4 -54 -26 -13 -52 -12 -72
3 -14 11 -15 23 -6 104 9 78 14 91 29 90 13 -1 21 -16 30 -57z m-2932 -35 c14
-16 10 -18 -14 -9 -9 3 -16 10 -16 15 0 14 16 11 30 -6z m329 -97 c12 -23 11
-29 0 -41 -13 -12 -47 -15 -84 -8 -5 1 7 8 28 16 50 17 53 21 35 42 -8 10 -12
27 -10 38 l5 20 6 -20 c4 -11 13 -32 20 -47z m1231 52 c0 -5 -4 -10 -9 -10 -6
0 -13 5 -16 10 -3 6 1 10 9 10 9 0 16 -4 16 -10z m-1415 -20 c3 -5 2 -10 -4
-10 -5 0 -13 5 -16 10 -3 6 -2 10 4 10 5 0 13 -4 16 -10z m2275 0 c0 -5 -2
-10 -4 -10 -3 0 -8 5 -11 10 -3 6 -1 10 4 10 6 0 11 -4 11 -10z m-1410 -21 c0
-5 -7 -9 -15 -9 -9 0 -12 6 -9 15 6 15 24 11 24 -6z m204 6 c-4 -8 -10 -15
-15 -15 -5 0 -9 7 -9 15 0 8 7 15 15 15 9 0 12 -6 9 -15z m606 5 c0 -5 -2 -10
-4 -10 -3 0 -8 5 -11 10 -3 6 -1 10 4 10 6 0 11 -4 11 -10z m780 -4 c0 -6 -7
-19 -14 -28 -17 -22 -163 -45 -179 -29 -8 8 -5 11 10 11 12 0 24 4 27 9 3 5
21 12 39 15 19 3 42 12 52 20 23 16 65 18 65 2z m-305 -6 c3 -5 25 -10 48 -10
27 0 38 -3 31 -10 -12 -12 -126 9 -118 22 7 11 32 10 39 -2z m380 1 c-6 -5
-28 -16 -49 -25 -39 -16 -39 -16 -22 3 16 17 32 24 71 30 6 0 6 -2 0 -8z
m-408 -27 c-3 -3 -12 -4 -19 -1 -8 3 -5 6 6 6 11 1 17 -2 13 -5z m-2568 -46
c-37 -23 -49 -23 -49 0 0 14 8 18 40 18 l39 0 -30 -18z m1087 0 c-22 -31 -21
-68 2 -68 16 -1 16 -1 -1 -11 -10 -6 -28 -9 -40 -7 -19 3 -21 8 -19 37 4 35
16 53 42 64 28 10 31 7 16 -15z m1784 6 c0 -4 -8 -13 -17 -21 -13 -10 -15 -16
-5 -19 6 -3 12 -12 12 -20 0 -11 -9 -14 -32 -12 -26 2 -34 8 -36 27 -2 13 0
21 5 18 5 -3 15 -2 23 4 11 6 3 9 -25 9 -30 0 -36 3 -25 10 17 11 100 14 100
4z m1169 -17 c-60 -47 -81 -59 -91 -49 -17 17 -2 40 24 35 13 -2 32 2 43 11
11 8 22 12 24 10 2 -2 2 -5 0 -7z m172 2 c48 17 47 6 -2 -13 -43 -17 -69 -10
-54 14 6 9 9 9 15 0 6 -10 15 -10 41 -1z m-3976 -9 c4 -6 -8 -10 -29 -10 -20
0 -36 5 -36 10 0 6 13 10 29 10 17 0 33 -4 36 -10z m2158 -20 c3 -14 1 -20 -6
-17 -7 2 -14 14 -15 26 -4 28 13 20 21 -9z m-1573 6 c0 -8 -4 -18 -10 -21 -5
-3 -10 3 -10 14 0 12 5 21 10 21 6 0 10 -6 10 -14z m2990 -5 c16 -30 12 -34
-14 -14 -13 10 -22 21 -19 26 8 13 22 8 33 -12z m-490 -12 c-59 -40 -96 -46
-83 -13 4 10 9 11 17 4 9 -7 19 -5 32 5 10 8 26 14 34 15 13 0 13 -1 0 -11z
m-3220 -14 c0 -23 -23 -28 -72 -17 l-43 10 42 1 c23 1 45 6 48 11 9 15 25 12
25 -5z m1965 -35 c3 -5 2 -10 -4 -10 -5 0 -13 5 -16 10 -3 6 -2 10 4 10 5 0
13 -4 16 -10z m1455 -20 c-20 -13 -50 -13 -50 0 0 6 15 10 33 10 24 0 28 -3
17 -10z m735 -366 c18 -12 37 -14 72 -10 180 22 193 19 131 -27 -55 -41 -80
-50 -139 -50 -58 1 -106 19 -146 56 -31 28 -29 35 10 40 17 2 36 5 40 5 4 1
19 -5 32 -14z m-1705 -74 c0 -5 -2 -10 -4 -10 -3 0 -8 5 -11 10 -3 6 -1 10 4
10 6 0 11 -4 11 -10z m-2883 -16 c-3 -3 -12 -4 -19 -1 -8 3 -5 6 6 6 11 1 17
-2 13 -5z"/>
<path d="M5985 3780 c-3 -5 -1 -10 4 -10 6 0 11 5 11 10 0 6 -2 10 -4 10 -3 0
-8 -4 -11 -10z"/>
<path d="M4447 3764 c-4 -4 -7 -21 -7 -37 0 -28 1 -29 38 -22 44 8 55 17 50
41 -2 14 -13 20 -38 22 -20 2 -39 0 -43 -4z"/>
<path d="M5875 3730 c-15 -25 52 -41 85 -20 19 12 13 16 -36 25 -28 4 -44 3
-49 -5z"/>
<path d="M4715 3614 c-6 -8 -26 -19 -45 -24 l-35 -8 43 -1 c31 -1 42 3 42 14
0 11 11 15 40 15 22 0 40 5 40 10 0 17 -74 12 -85 -6z"/>
<path d="M5100 3620 c0 -5 5 -10 10 -10 6 0 10 5 10 10 0 6 -4 10 -10 10 -5 0
-10 -4 -10 -10z"/>
<path d="M5574 3615 c-7 -18 3 -35 20 -35 9 0 12 9 8 25 -5 28 -20 33 -28 10z"/>
<path d="M2236 3594 c-9 -23 -7 -52 4 -59 5 -3 23 1 39 10 34 17 33 37 -5 54
-31 14 -31 14 -38 -5z"/>
<path d="M2560 3584 c0 -25 2 -26 40 -21 22 3 40 1 40 -4 0 -5 18 -9 40 -9 22
0 40 5 40 10 0 6 -18 10 -40 10 -22 0 -40 5 -40 10 0 6 -9 10 -21 10 -11 0
-29 5 -40 10 -17 9 -19 7 -19 -16z"/>
<path d="M3735 3600 c-3 -5 1 -10 9 -10 9 0 16 5 16 10 0 6 -4 10 -9 10 -6 0
-13 -4 -16 -10z"/>
<path d="M3896 3601 c-3 -5 3 -11 13 -14 14 -3 18 -1 14 9 -6 16 -19 18 -27 5z"/>
<path d="M4843 3595 c-17 -19 -16 -25 2 -25 8 0 15 5 15 10 0 6 5 10 10 10 6
0 10 -7 10 -15 0 -20 26 -19 34 0 4 11 -3 19 -20 25 -32 13 -36 12 -51 -5z"/>
<path d="M5177 3596 c-16 -12 -16 -15 -1 -27 13 -10 17 -10 24 1 5 8 19 11 36
8 16 -3 52 -2 79 2 47 7 44 7 -32 9 -45 0 -83 5 -85 10 -1 5 -11 4 -21 -3z"/>
<path d="M5440 3590 c0 -5 5 -10 11 -10 5 0 7 5 4 10 -3 6 -8 10 -11 10 -2 0
-4 -4 -4 -10z"/>
<path d="M1307 3583 c-13 -13 -7 -24 20 -34 38 -14 57 -5 41 21 -12 19 -48 27
-61 13z"/>
<path d="M1440 3580 c0 -5 7 -7 15 -4 8 4 15 8 15 10 0 2 -7 4 -15 4 -8 0 -15
-4 -15 -10z"/>
<path d="M3600 3575 c0 -11 11 -15 40 -15 22 0 40 -4 40 -10 0 -13 27 -13 35
0 13 22 -17 40 -66 40 -37 0 -49 -4 -49 -15z"/>
<path d="M4080 3579 c0 -5 5 -7 10 -4 6 3 10 8 10 11 0 2 -4 4 -10 4 -5 0 -10
-5 -10 -11z"/>
<path d="M1672 3559 c2 -6 7 -10 11 -10 4 1 15 1 25 1 14 0 15 2 2 10 -20 13
-43 13 -38 -1z"/>
<path d="M6653 3753 c-18 -6 -16 -23 1 -23 8 0 16 -6 19 -12 3 -9 9 -7 20 7
21 27 -3 44 -40 28z"/>
<path d="M6400 3690 c0 -11 5 -20 10 -20 6 0 10 9 10 20 0 11 -4 20 -10 20 -5
0 -10 -9 -10 -20z"/>
<path d="M4585 3140 c3 -5 11 -10 16 -10 6 0 7 5 4 10 -3 6 -11 10 -16 10 -6
0 -7 -4 -4 -10z"/>
<path d="M6250 3140 c-20 -12 -5 -24 16 -12 9 5 12 12 7 15 -5 3 -15 2 -23 -3z"/>
<path d="M6394 3139 c-3 -5 6 -9 20 -9 31 0 34 6 6 13 -11 3 -23 1 -26 -4z"/>
<path d="M3067 3045 c17 -32 27 -109 14 -101 -29 18 -192 27 -226 12 -18 -8
-18 -7 3 13 12 12 22 28 22 36 0 7 2 19 5 27 4 11 -22 13 -140 13 -80 0 -145
-2 -145 -3 0 -2 9 -17 21 -34 23 -31 27 -61 14 -92 -8 -18 -7 -18 13 2 13 13
28 19 41 15 27 -7 27 -33 1 -40 -11 -3 -20 -10 -20 -15 0 -6 11 -3 25 6 14 9
25 12 25 6 0 -23 45 -9 61 18 20 36 58 36 76 2 10 -21 18 -24 54 -21 40 3 42
2 29 -16 -8 -10 -16 -20 -17 -22 -2 -3 -10 4 -17 15 -21 28 -32 9 -18 -29 15
-41 15 -67 2 -67 -6 0 -29 -12 -51 -27 -41 -27 -41 -27 -16 -34 29 -8 65 -40
92 -84 l18 -29 11 31 c16 44 68 101 105 114 31 11 32 13 25 55 -5 32 -2 51 10
69 9 13 16 33 16 43 0 25 7 31 30 25 10 -3 20 -17 23 -33 5 -25 10 -28 41 -27
19 0 33 5 30 9 -3 4 0 8 7 8 8 0 8 5 -2 16 -11 14 -11 18 4 29 9 7 17 19 17
27 0 8 5 19 12 26 7 7 8 12 4 12 -5 0 -15 -8 -22 -17 -12 -17 -13 -17 -14 3 0
12 7 27 15 34 32 26 15 32 -72 27 -60 -4 -92 -2 -102 6 -12 10 -13 9 -4 -8z"/>
<path d="M3723 3049 c-9 -9 -7 -18 5 -38 9 -14 20 -29 25 -32 4 -3 3 -18 -2
-32 -12 -31 -25 -37 -16 -7 8 26 -7 26 -30 0 -10 -11 -22 -17 -26 -14 -5 3 -9
-2 -9 -10 0 -20 -9 -20 -34 -1 -16 12 -22 12 -35 2 -12 -9 -13 -9 -7 1 5 8 -2
12 -23 12 -24 0 -34 7 -46 30 -9 17 -18 30 -21 30 -2 0 0 -9 6 -21 11 -19 9
-44 -6 -84 -5 -12 -2 -16 9 -13 9 2 22 -5 29 -15 13 -17 17 -17 73 -2 37 9 67
24 77 38 15 19 18 19 18 4 0 -16 2 -16 25 -1 14 9 25 12 25 6 0 -5 -7 -12 -15
-16 -8 -3 -15 -12 -15 -21 0 -19 9 -19 32 2 28 25 28 13 0 -45 -24 -52 -26
-53 -61 -49 -20 2 -45 9 -56 15 -43 23 -88 33 -96 20 -4 -7 -5 -16 -3 -20 3
-4 -5 -7 -18 -7 -13 1 -48 -4 -78 -10 -71 -15 -166 -5 -191 20 -26 26 -30 24
-22 -11 5 -27 3 -30 -18 -30 l-24 -1 27 -24 c38 -33 104 -41 167 -20 28 9 51
21 51 26 0 5 8 9 19 9 10 0 31 7 47 14 15 8 32 12 38 8 6 -3 0 -9 -14 -12 -34
-8 -13 -19 45 -25 46 -4 80 -20 119 -57 21 -20 36 -23 36 -9 0 5 20 17 45 27
50 19 52 22 29 39 -27 19 -10 64 26 72 41 8 25 26 -17 20 l-34 -6 30 54 c34
59 40 95 16 95 -18 0 -37 -34 -29 -54 3 -9 2 -16 -4 -16 -18 0 -21 29 -6 65 8
19 19 35 24 35 6 0 3 11 -6 25 -9 14 -21 25 -26 25 -7 0 -6 -5 1 -13 13 -16 5
-27 -20 -27 -19 0 -35 33 -24 50 8 13 2 13 -12 -1z m101 -114 c-4 -8 -8 -15
-10 -15 -2 0 -4 7 -4 15 0 8 4 15 10 15 5 0 7 -7 4 -15z m-264 -22 c-8 -3 -21
-10 -27 -16 -9 -7 -13 -5 -13 7 0 11 8 16 28 15 15 0 21 -3 12 -6z m5 -42 c3
-5 1 -12 -4 -15 -5 -3 -11 1 -15 9 -6 16 9 21 19 6z m-171 -140 c7 -11 -44
-21 -93 -20 -28 1 -31 3 -11 7 23 4 24 5 5 13 -14 5 -2 8 37 8 31 1 59 -3 62
-8z"/>
<path d="M3523 3043 c-19 -4 -21 -7 -11 -29 14 -30 22 -30 42 1 24 37 23 38
-31 28z"/>
<path d="M3280 3029 c0 -5 5 -7 10 -4 6 3 10 8 10 11 0 2 -4 4 -10 4 -5 0 -10
-5 -10 -11z"/>
<path d="M5603 3028 c-12 -16 -24 -48 -17 -48 2 0 9 11 14 25 5 14 17 25 26
25 13 0 15 -6 10 -31 -3 -17 -6 -35 -6 -39 0 -4 -14 -22 -32 -39 -33 -32 -28
-38 17 -21 19 7 25 15 21 26 -6 14 1 16 44 12 49 -5 50 -5 50 23 0 15 5 31 10
34 6 3 10 13 10 21 0 8 -4 14 -10 14 -5 0 -10 -5 -10 -10 0 -18 -34 -48 -59
-52 -32 -4 -36 13 -11 40 13 14 16 22 8 22 -7 0 -22 3 -34 6 -11 3 -25 0 -31
-8z"/>
<path d="M5690 3030 c0 -5 7 -7 15 -4 8 4 15 8 15 10 0 2 -7 4 -15 4 -8 0 -15
-4 -15 -10z"/>
<path d="M2211 2985 c9 -11 18 -27 21 -35 3 -10 6 -7 11 9 3 13 3 20 0 17 -4
-3 -16 2 -27 11 -21 18 -21 18 -5 -2z"/>
<path d="M3680 2991 c0 -5 5 -13 10 -16 6 -3 10 -2 10 4 0 5 -4 13 -10 16 -5
3 -10 2 -10 -4z"/>
<path d="M4357 2985 c-15 -10 -17 -18 -8 -32 7 -12 10 -14 11 -4 0 8 7 23 17
33 19 21 6 24 -20 3z"/>
<path d="M4275 2980 c3 -5 8 -10 11 -10 2 0 4 5 4 10 0 6 -5 10 -11 10 -5 0
-7 -4 -4 -10z"/>
<path d="M4407 2951 c-6 -29 -10 -32 -32 -27 -14 4 -25 3 -25 -1 1 -37 65 -36
72 1 3 12 2 31 -2 41 -5 15 -8 12 -13 -14z"/>
<path d="M5135 2960 c4 -6 11 -8 16 -5 14 9 11 15 -7 15 -8 0 -12 -5 -9 -10z"/>
<path d="M5200 2961 c0 -5 7 -11 14 -14 10 -4 13 -1 9 9 -6 15 -23 19 -23 5z"/>
<path d="M4291 2944 c0 -11 3 -14 6 -6 3 7 2 16 -1 19 -3 4 -6 -2 -5 -13z"/>
<path d="M5160 2946 c0 -2 8 -10 18 -17 15 -13 16 -12 3 4 -13 16 -21 21 -21
13z"/>
<path d="M5404 2935 c-4 -8 -16 -15 -27 -15 -18 0 -19 -1 -5 -12 9 -7 18 -20
21 -28 3 -8 6 -3 6 12 1 16 10 33 23 42 19 13 20 16 5 16 -10 0 -20 -7 -23
-15z"/>
<path d="M5536 2931 c-3 -5 -16 -7 -28 -3 -19 5 -21 2 -15 -27 5 -24 3 -31 -6
-28 -6 2 -11 13 -9 24 2 12 -4 23 -13 27 -13 4 -15 1 -10 -13 3 -11 -1 -26
-10 -35 -17 -17 -15 -18 24 -20 36 -2 36 -21 1 -36 -24 -10 -30 -18 -30 -43 0
-30 0 -30 -20 -12 l-20 18 21 23 c19 21 20 24 6 38 -20 20 -27 20 -27 1 0 -23
-30 -65 -46 -65 -8 0 -14 -4 -14 -10 0 -14 13 -13 28 2 9 9 15 9 24 0 9 -9 8
-12 -5 -12 -19 0 -23 -25 -6 -36 7 -4 16 0 20 9 9 15 49 13 49 -3 0 -5 3 -15
6 -24 4 -12 0 -16 -16 -16 -24 0 -60 -17 -60 -28 0 -5 15 -8 33 -9 17 0 63
-15 101 -32 l68 -32 23 25 c14 16 40 28 64 32 23 4 41 11 41 15 0 5 -13 7 -30
4 -20 -4 -30 -1 -30 7 0 7 -3 23 -6 36 -8 26 16 31 37 6 10 -12 10 -17 0 -23
-15 -10 35 -21 88 -20 30 0 33 2 20 11 -14 9 -15 16 -6 35 12 27 39 31 36 6
-4 -40 2 -53 21 -53 12 0 20 7 20 17 0 9 7 25 16 35 19 20 22 18 -71 39 -90
21 -168 18 -195 -6 -12 -11 -32 -19 -46 -17 -13 2 -24 -1 -24 -7 0 -6 7 -11
16 -11 14 0 14 -2 0 -15 -24 -24 -49 -19 -40 8 3 12 13 26 20 30 15 9 19 47 5
47 -12 0 -21 39 -10 46 5 3 6 23 3 44 -5 32 -3 39 12 42 13 2 15 6 7 11 -6 4
-14 3 -17 -2z m-13 -51 c3 -11 2 -20 -3 -20 -4 0 -10 11 -12 25 -6 29 7 25 15
-5z m-39 -122 c22 -30 20 -48 -4 -48 -13 0 -20 7 -20 19 0 11 -3 26 -6 35 -9
24 13 19 30 -6z m41 13 c3 -5 1 -12 -5 -16 -5 -3 -10 1 -10 9 0 18 6 21 15 7z"/>
<path d="M3250 2910 c0 -11 4 -20 9 -20 5 0 7 9 4 20 -3 11 -7 20 -9 20 -2 0
-4 -9 -4 -20z"/>
<path d="M5310 2923 c1 -5 7 -19 16 -33 15 -25 15 -25 8 -1 -4 15 -1 27 7 32
10 6 8 9 -8 9 -13 0 -23 -3 -23 -7z"/>
<path d="M6088 2923 c-27 -7 -21 -23 7 -23 14 0 25 4 25 9 0 13 -12 18 -32 14z"/>
<path d="M5935 2910 c-3 -5 1 -10 10 -10 9 0 13 5 10 10 -3 6 -8 10 -10 10 -2
0 -7 -4 -10 -10z"/>
<path d="M5640 2890 c-8 -11 -20 -18 -27 -16 -15 6 -28 -33 -15 -46 6 -6 16
-1 28 17 11 15 27 35 37 46 11 13 13 19 4 19 -7 0 -19 -9 -27 -20z"/>
<path d="M5715 2900 c-3 -5 3 -10 14 -10 12 0 21 5 21 10 0 6 -6 10 -14 10 -8
0 -18 -4 -21 -10z"/>
<path d="M5805 2900 c11 -5 29 -9 40 -9 17 -1 17 1 5 9 -8 5 -26 9 -40 9 -23
0 -23 -1 -5 -9z"/>
<path d="M4450 2891 c0 -6 -9 -11 -19 -11 -24 0 -51 -26 -50 -48 0 -13 3 -12
11 5 7 14 24 25 44 29 34 6 43 17 24 29 -5 3 -10 1 -10 -4z"/>
<path d="M4336 2846 c3 -9 -3 -17 -15 -21 -12 -3 -21 -10 -21 -15 0 -13 29
-20 36 -9 3 6 13 8 21 5 9 -4 13 -2 9 6 -3 7 -9 21 -12 31 -4 9 -10 17 -15 17
-5 0 -6 -6 -3 -14z"/>
<path d="M2650 2834 c0 -8 5 -12 10 -9 6 3 10 10 10 16 0 5 -4 9 -10 9 -5 0
-10 -7 -10 -16z"/>
<path d="M3210 2840 c0 -5 5 -10 10 -10 6 0 10 5 10 10 0 6 -4 10 -10 10 -5 0
-10 -4 -10 -10z"/>
<path d="M3606 2841 c-11 -4 -15 -10 -10 -14 18 -11 98 -36 102 -32 11 10 -9
35 -28 35 -11 0 -20 5 -20 10 0 12 -17 12 -44 1z"/>
<path d="M5998 2844 c-5 -4 -8 -16 -8 -28 0 -14 3 -17 11 -9 6 6 9 19 7 28 -1
9 -6 13 -10 9z"/>
<path d="M3960 2821 c-14 -27 -13 -31 10 -31 15 0 20 7 20 25 0 30 -15 33 -30
6z"/>
<path d="M5366 2823 c-6 -14 -5 -15 5 -6 7 7 10 15 7 18 -3 3 -9 -2 -12 -12z"/>
<path d="M4780 2790 c34 -11 60 -11 35 0 -11 5 -29 8 -40 8 -16 0 -15 -2 5 -8z"/>
<path d="M4848 2793 c7 -3 16 -2 19 1 4 3 -2 6 -13 5 -11 0 -14 -3 -6 -6z"/>
<path d="M4538 2769 c-20 -11 -24 -39 -7 -39 7 0 18 8 25 18 24 31 15 41 -18
21z"/>
<path d="M4827 2747 c-11 -29 -9 -43 4 -30 6 6 9 19 7 29 -3 18 -4 18 -11 1z"/>
<path d="M3853 2743 c-21 -8 -14 -20 14 -26 35 -7 47 1 32 19 -12 14 -24 16
-46 7z"/>
<path d="M5987 2743 c-13 -12 -7 -28 14 -41 18 -12 23 -11 36 7 8 12 22 21 31
21 15 0 15 2 2 10 -17 11 -73 13 -83 3z"/>
<path d="M2700 2730 c0 -5 14 -10 30 -10 17 0 30 5 30 10 0 6 -13 10 -30 10
-16 0 -30 -4 -30 -10z"/>
<path d="M3090 2730 c-19 -4 -33 -8 -30 -10 12 -5 56 -7 68 -3 13 5 17 24 5
22 -5 -1 -24 -5 -43 -9z"/>
<path d="M4007 2713 c-5 -29 7 -63 23 -63 12 0 16 9 24 53 6 34 5 37 -17 37
-19 0 -26 -6 -30 -27z"/>
<path d="M3480 2709 c0 -11 37 -12 43 -1 3 4 -6 8 -19 8 -13 1 -24 -2 -24 -7z"/>
<path d="M2760 2700 c0 -5 5 -10 10 -10 6 0 10 5 10 10 0 6 -4 10 -10 10 -5 0
-10 -4 -10 -10z"/>
<path d="M3837 2683 c-13 -13 -7 -25 7 -14 10 8 16 9 21 1 3 -6 11 -7 17 -4 6
4 5 10 -3 15 -17 10 -33 11 -42 2z"/>
<path d="M3896 2665 c-3 -8 -1 -15 3 -15 5 0 11 7 15 15 3 8 1 15 -3 15 -5 0
-11 -7 -15 -15z"/>
<path d="M4037 2595 c9 -16 20 -33 26 -36 15 -10 47 23 47 48 0 20 -4 22 -44
21 l-44 -2 15 -31z"/>
<path d="M4167 2602 c-15 -17 -15 -18 3 -19 14 -1 20 5 20 18 0 24 -3 24 -23
1z"/>
<path d="M4404 2563 c11 -12 56 -14 56 -3 0 5 -14 10 -32 10 -17 0 -28 -3 -24
-7z"/>
<path d="M4299 2543 c-17 -4 -34 -43 -19 -43 4 0 10 -9 13 -20 8 -32 27 -24
21 8 -4 19 0 34 11 45 17 17 10 20 -26 10z"/>
<path d="M4373 2529 c-15 -5 -21 -14 -17 -24 8 -19 24 -20 24 -1 0 8 6 16 13
19 6 2 10 7 7 9 -3 3 -15 2 -27 -3z"/>
<path d="M4405 2490 c3 -5 8 -10 11 -10 2 0 4 5 4 10 0 6 -5 10 -11 10 -5 0
-7 -4 -4 -10z"/>
<path d="M4830 2460 c0 -16 79 -35 92 -22 6 6 10 13 7 15 -10 10 -99 16 -99 7z"/>
<path d="M5115 2440 c12 -13 22 -17 29 -11 6 6 32 12 56 14 25 2 17 3 -17 2
-35 -2 -63 1 -63 6 0 5 -5 9 -12 9 -6 0 -3 -9 7 -20z"/>
<path d="M4315 2398 c-3 -12 -9 -66 -22 -224 -5 -67 -4 -72 18 -88 27 -18 75
-21 85 -5 14 24 22 -16 19 -97 -2 -62 -8 -94 -25 -126 l-22 -42 26 -19 c14
-10 26 -25 26 -33 0 -23 13 -16 43 23 17 23 27 30 27 20 0 -9 -13 -32 -30 -50
-16 -19 -30 -40 -30 -47 0 -7 14 5 31 26 48 59 99 141 99 159 0 8 5 15 10 15
6 0 10 7 10 16 0 10 14 56 31 103 18 47 39 105 47 129 l15 43 23 -22 c34 -31
40 -18 9 19 -28 34 -26 52 14 95 22 24 31 27 66 23 143 -18 200 -16 192 7 -2
6 -35 9 -83 8 -45 -1 -92 3 -106 9 -20 10 -31 9 -56 -4 -41 -21 -51 -20 -63 7
-9 20 -17 22 -100 24 -50 0 -92 -3 -95 -9 -4 -5 4 -23 16 -40 21 -29 22 -33
10 -112 -7 -44 -22 -103 -34 -131 l-21 -50 -6 75 c-4 42 -14 91 -23 109 -14
25 -16 47 -12 90 7 66 -9 97 -43 86 -15 -5 -21 -2 -21 9 0 19 -19 21 -25 4z
m280 -78 c-3 -5 -10 -10 -16 -10 -5 0 -9 5 -9 10 0 6 7 10 16 10 8 0 12 -4 9
-10z"/>
<path d="M5550 2400 c0 -5 7 -10 15 -10 8 0 15 5 15 10 0 6 -7 10 -15 10 -8 0
-15 -4 -15 -10z"/>
<path d="M2555 2374 c-108 -13 -395 -44 -409 -44 -4 0 -5 -4 -1 -10 3 -5 11
-7 18 -5 7 2 86 11 177 20 276 26 374 37 390 46 21 12 -44 9 -175 -7z"/>
<path d="M3500 2380 c0 -5 4 -10 9 -10 6 0 13 5 16 10 3 6 -1 10 -9 10 -9 0
-16 -4 -16 -10z"/>
<path d="M5100 2365 c0 -20 17 -28 23 -11 3 8 -1 17 -9 20 -8 3 -14 -1 -14 -9z"/>
<path d="M5194 2354 c5 -17 3 -23 -4 -19 -5 3 -10 14 -11 23 0 10 -3 12 -5 5
-3 -7 -12 -9 -20 -6 -30 11 -12 -14 20 -28 40 -19 67 -10 47 15 -7 8 -10 20
-6 26 3 5 -1 10 -10 10 -13 0 -16 -6 -11 -26z"/>
<path d="M2015 2340 c-3 -5 -2 -10 4 -10 5 0 13 5 16 10 3 6 2 10 -4 10 -5 0
-13 -4 -16 -10z"/>
<path d="M2580 2334 c-8 -1 -37 -6 -64 -9 l-49 -7 7 -71 c4 -39 8 -72 9 -74 2
-1 28 -6 58 -10 52 -8 54 -10 57 -41 3 -29 1 -32 -22 -32 -16 0 -26 6 -26 14
0 17 -17 24 -46 18 -50 -9 13 -82 72 -82 18 0 44 4 58 10 24 9 26 14 26 79 0
75 -5 81 -60 81 -44 0 -60 10 -60 36 0 13 4 24 9 24 5 0 16 3 25 6 11 4 16 1
16 -10 0 -11 9 -16 30 -16 29 0 30 2 30 45 0 43 -1 45 -27 44 -16 -1 -35 -3
-43 -5z"/>
<path d="M5547 2309 c4 -15 8 -17 14 -8 8 14 3 29 -11 29 -4 0 -6 -9 -3 -21z"/>
<path d="M2282 2283 c-19 -23 -21 -36 -16 -73 8 -56 33 -78 94 -82 40 -3 45
-6 45 -28 0 -29 -31 -40 -48 -16 -7 9 -23 17 -37 18 -38 4 -33 -31 9 -59 45
-30 103 -31 131 -1 24 26 23 21 5 82 -8 27 -15 73 -15 101 0 68 -18 85 -91 85
-48 0 -58 -4 -77 -27z m104 -57 c7 -30 -1 -46 -26 -46 -19 0 -30 19 -30 51 0
30 48 26 56 -5z"/>
<path d="M5505 2300 c3 -5 8 -10 11 -10 2 0 4 5 4 10 0 6 -5 10 -11 10 -5 0
-7 -4 -4 -10z"/>
<path d="M3666 2283 c-6 -14 -5 -15 5 -6 7 7 10 15 7 18 -3 3 -9 -2 -12 -12z"/>
<path d="M2168 2253 c6 -2 18 -2 25 0 6 3 1 5 -13 5 -14 0 -19 -2 -12 -5z"/>
<path d="M4700 2246 c0 -7 8 -20 18 -27 14 -11 15 -11 5 1 -15 17 -17 34 -3
25 6 -3 10 -1 10 4 0 6 -7 11 -15 11 -8 0 -15 -6 -15 -14z"/>
<path d="M3605 2215 c-16 -13 -38 -24 -48 -25 -10 0 -15 -5 -12 -10 10 -15 46
-1 67 26 11 13 25 21 32 18 8 -3 17 -1 21 5 12 21 -30 11 -60 -14z"/>
<path d="M3568 2143 c7 -3 16 -2 19 1 4 3 -2 6 -13 5 -11 0 -14 -3 -6 -6z"/>
<path d="M3020 2131 c0 -5 9 -13 20 -16 11 -3 20 -11 20 -17 0 -6 3 -8 7 -5 3
4 -2 16 -12 27 -19 21 -35 26 -35 11z"/>
<path d="M3000 2108 c0 -9 5 -20 11 -23 17 -11 18 -2 3 19 -12 17 -14 17 -14
4z"/>
<path d="M3654 2106 c-3 -9 -18 -17 -33 -18 -15 0 -8 -4 19 -8 43 -6 44 -7 20
-17 l-25 -12 24 0 c13 -1 22 -4 18 -7 -6 -6 16 -34 27 -34 10 0 6 49 -4 55 -6
4 -10 16 -8 28 4 26 -29 37 -38 13z"/>
<path d="M3060 2069 c0 -5 5 -7 10 -4 6 3 10 8 10 11 0 2 -4 4 -10 4 -5 0 -10
-5 -10 -11z"/>
<path d="M4215 2070 c-30 -8 -30 -8 8 -9 23 -1 36 3 32 9 -3 6 -7 9 -8 9 -1
-1 -15 -5 -32 -9z"/>
<path d="M2678 2053 c6 -2 18 -2 25 0 6 3 1 5 -13 5 -14 0 -19 -2 -12 -5z"/>
<path d="M4300 2050 c-23 -7 -23 -8 -3 -9 12 -1 25 4 28 9 3 6 5 10 3 9 -2 -1
-14 -5 -28 -9z"/>
<path d="M3020 2041 c0 -11 26 -22 34 -14 3 3 3 10 0 14 -7 12 -34 11 -34 0z"/>
<path d="M3800 2024 l-45 -14 44 4 c24 3 48 9 54 15 13 13 5 12 -53 -5z"/>
<path d="M5253 2020 c-13 -20 -8 -50 8 -50 5 0 9 6 9 13 0 6 3 22 6 35 8 27
-7 29 -23 2z"/>
<path d="M2207 2016 c-3 -8 3 -12 16 -11 11 1 22 6 24 11 5 15 -35 15 -40 0z"/>
<path d="M2725 2000 c3 -5 8 -10 11 -10 2 0 4 5 4 10 0 6 -5 10 -11 10 -5 0
-7 -4 -4 -10z"/>
<path d="M3503 2000 c20 -4 41 -11 45 -15 4 -4 -4 -5 -18 -2 -24 6 -24 5 -6
-8 23 -17 36 -19 36 -5 0 6 9 6 25 0 34 -13 32 2 -4 23 -17 10 -48 17 -73 16
l-43 -1 38 -8z"/>
<path d="M3670 1968 c0 -23 -20 -34 -32 -17 -7 11 -8 9 -6 -6 2 -14 12 -21 33
-23 40 -4 69 18 61 45 -8 26 -56 27 -56 1z"/>
<path d="M3580 1945 c9 -11 7 -12 -8 -8 -24 6 -33 -16 -23 -53 5 -18 16 -30
33 -35 33 -9 39 -3 28 26 -5 12 -7 34 -6 48 2 18 -2 27 -16 30 -15 4 -17 3 -8
-8z"/>
<path d="M4844 1949 c-4 -7 -39 -10 -98 -9 -111 4 -141 2 -133 -7 4 -3 39 -5
79 -4 l73 1 -25 -22 c-20 -17 -21 -20 -5 -13 11 4 41 10 67 12 39 5 47 9 51
29 5 26 2 30 -9 13z"/>
<path d="M3798 1853 c7 -3 16 -2 19 1 4 3 -2 6 -13 5 -11 0 -14 -3 -6 -6z"/>
<path d="M5250 1819 c0 -5 5 -7 10 -4 6 3 10 8 10 11 0 2 -4 4 -10 4 -5 0 -10
-5 -10 -11z"/>
<path d="M4948 1813 c7 -3 16 -2 19 1 4 3 -2 6 -13 5 -11 0 -14 -3 -6 -6z"/>
<path d="M3793 1803 c9 -2 25 -2 35 0 9 3 1 5 -18 5 -19 0 -27 -2 -17 -5z"/>
<path d="M3125 1733 c6 -5 32 -18 58 -27 26 -10 55 -29 64 -42 8 -13 21 -24
27 -24 16 0 43 -34 38 -48 -2 -7 1 -12 7 -12 6 0 11 -11 11 -25 0 -14 5 -25
11 -25 8 0 9 17 5 54 -7 50 -5 55 15 61 14 5 18 10 10 15 -8 4 -10 17 -5 33 5
23 3 27 -14 27 -12 0 -27 -8 -34 -19 -22 -31 -49 -29 -85 8 -18 19 -33 29 -33
22 0 -8 -8 -10 -22 -6 -56 16 -63 17 -53 8z"/>
<path d="M5263 1727 c4 -10 7 -25 7 -33 0 -8 7 -14 15 -14 20 0 19 7 -7 38
-13 17 -19 20 -15 9z"/>
<path d="M3104 1706 c11 -9 24 -16 30 -16 12 0 7 5 -24 19 -24 11 -24 11 -6
-3z"/>
<path d="M5463 1713 c9 -2 23 -2 30 0 6 3 -1 5 -18 5 -16 0 -22 -2 -12 -5z"/>
<path d="M5317 1680 c-14 -11 -30 -20 -36 -20 -6 0 -11 -10 -11 -21 0 -21 1
-20 21 5 13 16 30 26 47 26 37 0 72 11 72 21 0 17 -67 9 -93 -11z"/>
<path d="M3613 1668 c-27 -28 -33 -59 -8 -38 13 11 15 5 15 -41 0 -37 3 -50
10 -43 6 6 10 40 8 78 l-3 68 -22 -24z"/>
<path d="M5418 1653 c7 -3 16 -2 19 1 4 3 -2 6 -13 5 -11 0 -14 -3 -6 -6z"/>
<path d="M2458 1633 c7 -3 16 -2 19 1 4 3 -2 6 -13 5 -11 0 -14 -3 -6 -6z"/>
<path d="M5335 1600 c-12 -5 11 -6 55 -3 41 3 77 7 79 9 9 8 -115 2 -134 -6z"/>
<path d="M2695 1590 c-13 -5 -14 -9 -5 -9 8 0 24 4 35 9 13 5 14 9 5 9 -8 0
-24 -4 -35 -9z"/>
<path d="M5450 1579 c0 -5 5 -7 10 -4 6 3 10 8 10 11 0 2 -4 4 -10 4 -5 0 -10
-5 -10 -11z"/>
<path d="M2268 1563 c7 -3 16 -2 19 1 4 3 -2 6 -13 5 -11 0 -14 -3 -6 -6z"/>
<path d="M3555 1560 c-3 -5 -1 -10 4 -10 6 0 11 5 11 10 0 6 -2 10 -4 10 -3 0
-8 -4 -11 -10z"/>
<path d="M3585 1493 c-11 -20 -29 -45 -40 -56 -13 -13 -15 -18 -5 -15 19 6 73
83 69 97 -2 6 -13 -5 -24 -26z"/>
<path d="M2744 1502 c-6 -4 -8 -16 -4 -26 6 -18 7 -18 13 4 7 28 6 32 -9 22z"/>
<path d="M3795 1490 c4 -6 11 -8 16 -5 14 9 11 15 -7 15 -8 0 -12 -5 -9 -10z"/>
<path d="M4746 1460 c-18 -61 -23 -89 -15 -85 11 7 31 83 26 98 -2 6 -7 0 -11
-13z"/>
<path d="M4710 1350 c-13 -8 -13 -10 2 -10 9 0 20 5 23 10 8 13 -5 13 -25 0z"/>
<path d="M4710 1300 c-25 -4 -36 -8 -25 -10 32 -5 79 1 90 11 10 10 5 10 -65
-1z"/>
<path d="M4939 1288 c-7 -13 -4 -18 12 -23 11 -4 21 -5 22 -3 1 1 8 13 15 25
11 21 10 23 -14 21 -14 -2 -30 -10 -35 -20z"/>
<path d="M4995 1270 c-3 -6 1 -7 9 -4 18 7 21 14 7 14 -6 0 -13 -4 -16 -10z"/>
<path d="M5090 1220 c-13 -8 -13 -10 2 -10 9 0 20 5 23 10 8 13 -5 13 -25 0z"/>
<path d="M3448 1213 c7 -3 16 -2 19 1 4 3 -2 6 -13 5 -11 0 -14 -3 -6 -6z"/>
<path d="M3098 1163 c7 -3 16 -2 19 1 4 3 -2 6 -13 5 -11 0 -14 -3 -6 -6z"/>
<path d="M1376 2885 c-19 -14 -19 -15 7 -15 17 0 27 5 27 15 0 19 -9 19 -34 0z"/>
<path d="M1524 2885 c-19 -14 -18 -14 4 -15 13 0 22 6 22 15 0 19 -1 19 -26 0z"/>
<path d="M1660 2885 c0 -8 9 -15 20 -15 11 0 20 7 20 15 0 8 -9 15 -20 15 -11
0 -20 -7 -20 -15z"/>
<path d="M1562 2828 c-17 -17 -15 -58 3 -58 18 0 38 37 31 56 -7 17 -18 18
-34 2z"/>
<path d="M1725 2828 c-9 -22 4 -43 17 -30 7 7 7 16 0 29 -10 17 -11 17 -17 1z"/>
<path d="M935 2820 c-8 -14 3 -30 21 -30 8 0 14 9 14 20 0 21 -24 28 -35 10z"/>
<path d="M1250 2811 c0 -12 6 -21 16 -21 9 0 14 7 12 17 -5 25 -28 28 -28 4z"/>
<path d="M1400 2805 c0 -8 7 -15 15 -15 8 0 15 7 15 15 0 8 -7 15 -15 15 -8 0
-15 -7 -15 -15z"/>
<path d="M1293 2743 c-17 -6 -16 -58 1 -72 10 -8 16 -8 23 1 16 23 32 66 26
72 -7 7 -32 7 -50 -1z"/>
<path d="M1607 2743 c-17 -16 -3 -83 17 -83 12 0 37 70 30 82 -6 10 -38 10
-47 1z"/>
<path d="M760 2690 c0 -5 7 -10 16 -10 8 0 12 5 9 10 -3 6 -10 10 -16 10 -5 0
-9 -4 -9 -10z"/>
<path d="M560 2820 c0 -5 6 -10 14 -10 8 0 18 5 21 10 3 6 -3 10 -14 10 -12 0
-21 -4 -21 -10z"/>
<path d="M1360 2280 c0 -11 7 -20 15 -20 13 0 14 4 5 20 -6 11 -13 20 -15 20
-3 0 -5 -9 -5 -20z"/>
<path d="M1265 2280 c3 -5 8 -10 11 -10 2 0 4 5 4 10 0 6 -5 10 -11 10 -5 0
-7 -4 -4 -10z"/>
<path d="M6380 2004 c-32 -18 -4 -17 35 1 23 10 25 13 10 13 -11 0 -31 -6 -45
-14z"/>
<path d="M6430 1979 c-11 -7 -1 -8 35 -3 28 4 52 8 54 10 10 9 -76 3 -89 -7z"/>
<path d="M6530 1960 c0 -5 7 -7 15 -4 8 4 15 8 15 10 0 2 -7 4 -15 4 -8 0 -15
-4 -15 -10z"/>
<path d="M6350 1938 c-40 -18 -1 -21 45 -4 39 14 39 15 10 15 -16 0 -41 -5
-55 -11z"/>
<path d="M6465 1924 c-19 -16 -19 -16 5 -9 14 4 32 11 40 16 12 7 11 8 -5 8
-11 0 -29 -7 -40 -15z"/>
<path d="M6257 1783 c-4 -3 -7 -11 -7 -17 0 -6 5 -5 12 2 6 6 9 14 7 17 -3 3
-9 2 -12 -2z"/>
<path d="M6527 1483 c-12 -20 -18 -73 -8 -73 5 0 9 8 9 18 -1 9 2 27 6 40 7
21 2 31 -7 15z"/>
<path d="M6495 1371 c-5 -16 -13 -19 -43 -15 l-37 4 33 -12 c17 -6 32 -17 32
-25 0 -8 6 -13 13 -10 6 2 26 -2 42 -10 28 -13 29 -13 10 2 -11 9 -27 20 -35
25 -12 7 -13 13 -3 29 7 11 9 23 4 26 -5 3 -12 -3 -16 -14z"/>
<path d="M6525 1260 c-3 -5 -15 -10 -26 -10 -10 0 -19 -6 -19 -14 0 -9 7 -12
20 -9 11 3 20 9 20 14 0 5 9 9 20 9 11 0 20 5 20 10 0 6 -6 10 -14 10 -8 0
-18 -4 -21 -10z"/>
<path d="M5670 1751 c0 -5 5 -13 10 -16 6 -3 10 -15 10 -26 0 -11 4 -18 8 -15
15 9 6 61 -11 64 -10 2 -17 -1 -17 -7z"/>
<path d="M5651 1682 c-12 -36 -10 -136 3 -150 12 -11 18 8 16 55 -1 26 -2 67
-1 91 1 23 0 42 -2 42 -2 0 -9 -17 -16 -38z"/>
<path d="M5828 1373 c6 -2 18 -2 25 0 6 3 1 5 -13 5 -14 0 -19 -2 -12 -5z"/>
<path d="M5688 1283 c7 -3 16 -2 19 1 4 3 -2 6 -13 5 -11 0 -14 -3 -6 -6z"/>
<path d="M5830 1158 c-22 -10 -23 -12 -6 -15 10 -3 26 2 34 11 19 18 8 20 -28
4z"/>
<path d="M4677 783 c-4 -3 -7 -11 -7 -17 0 -6 5 -5 12 2 6 6 9 14 7 17 -3 3
-9 2 -12 -2z"/>
<path d="M4675 719 c-4 -6 -5 -13 -2 -16 7 -7 27 6 27 18 0 12 -17 12 -25 -2z"/>
<path d="M2810 890 c0 -11 5 -20 10 -20 6 0 10 5 10 10 0 6 8 10 18 11 14 0
14 2 -3 9 -30 13 -35 12 -35 -10z"/>
<path d="M1848 813 c7 -3 16 -2 19 1 4 3 -2 6 -13 5 -11 0 -14 -3 -6 -6z"/>
<path d="M5178 743 c7 -3 16 -2 19 1 4 3 -2 6 -13 5 -11 0 -14 -3 -6 -6z"/>
<path d="M6590 190 c0 -5 5 -10 11 -10 5 0 7 5 4 10 -3 6 -8 10 -11 10 -2 0
-4 -4 -4 -10z"/>
<path d="M6713 3144 c-17 -12 -16 -13 7 -14 36 0 58 16 31 23 -11 2 -28 -1
-38 -9z"/>
<path d="M6877 3153 c-13 -13 -7 -20 16 -18 35 4 37 4 37 15 0 11 -43 14 -53
3z"/>
<path d="M6370 2958 c0 -2 7 -21 16 -43 l15 -40 -5 36 c-4 33 -2 36 17 33 21
-4 21 -4 2 5 -19 9 -45 14 -45 9z"/>
<path d="M6355 2860 c-10 -11 -16 -22 -13 -25 3 -3 13 6 22 20 20 30 16 32 -9
5z"/>
<path d="M6885 2840 c-9 -28 11 -52 25 -30 6 8 9 21 7 29 -4 23 -25 24 -32 1z"/>
<path d="M7065 2840 c-7 -23 2 -43 16 -35 12 8 12 55 0 55 -5 0 -12 -9 -16
-20z"/>
<path d="M6888 2747 c-31 -12 -39 -40 -10 -35 12 2 18 -5 20 -25 5 -40 31 -31
47 15 18 54 1 68 -57 45z"/>
<path d="M6480 2630 c0 -5 7 -10 16 -10 8 0 12 5 9 10 -3 6 -10 10 -16 10 -5
0 -9 -4 -9 -10z"/>
<path d="M6600 2506 c0 -20 34 -76 46 -76 22 0 17 16 -16 52 -16 18 -30 29
-30 24z"/>
<path d="M7116 2442 c-3 -6 -1 -14 5 -17 15 -10 25 3 12 16 -7 7 -13 7 -17 1z"/>
<path d="M7160 2396 c0 -17 14 -29 23 -20 8 8 -3 34 -14 34 -5 0 -9 -6 -9 -14z"/>
<path d="M7085 2390 c27 -12 35 -12 35 0 0 6 -12 10 -27 9 -25 0 -26 -1 -8 -9z"/>
<path d="M6397 2369 c7 -7 15 -10 18 -7 3 3 -2 9 -12 12 -14 6 -15 5 -6 -5z"/>
<path d="M7056 2349 c-9 -27 -10 -44 -2 -76 8 -36 26 -42 47 -17 10 12 10 20
1 35 -7 10 -12 25 -12 33 0 7 -7 19 -15 26 -12 10 -16 10 -19 -1z"/>
<path d="M7126 2319 c-7 -45 5 -69 34 -69 28 0 42 24 30 54 -5 14 -14 26 -20
26 -5 0 -10 7 -10 15 0 8 -6 15 -14 15 -8 0 -16 -16 -20 -41z"/>
<path d="M56 2224 c-3 -9 -6 -27 -6 -41 0 -21 2 -24 15 -13 13 11 15 7 15 -28
0 -23 -4 -44 -10 -47 -5 -3 -10 -26 -10 -51 0 -37 3 -44 20 -44 26 0 34 35 27
119 -8 93 -34 148 -51 105z"/>
<path d="M0 2179 c0 -17 4 -28 10 -24 6 3 10 17 10 31 0 13 -4 24 -10 24 -5 0
-10 -14 -10 -31z"/>
<path d="M0 2005 c0 -43 1 -45 20 -35 24 13 23 9 9 49 -16 45 -29 38 -29 -14z"/>
</g>
</svg>
